<svg width="15" height="14" viewBox="0 0 15 14" fill="none" xmlns="http://www.w3.org/2000/svg">
<g clip-path="url(#clip0)">
<path d="M14.9861 3.01613C14.9861 3.00014 14.9971 2.98456 14.9964 2.96875L10.7241 7.08536L14.9912 11.0705C14.9937 11.042 14.9861 11.0133 14.9861 10.9842V3.01613Z" fill="#005F99"/>
<path d="M10.0726 7.71875L8.32856 9.39678C8.2403 9.48169 8.12632 9.52427 8.01227 9.52427C7.9006 9.52427 7.78893 9.48352 7.70128 9.40183L5.96198 7.78103L1.66699 11.921C1.77143 11.9585 1.88352 11.9877 2.00091 11.9877H14.0237C14.198 11.9877 14.3615 11.9346 14.5037 11.8554L10.0726 7.71875Z" fill="#005F99"/>
<path d="M8.00723 8.44016L14.5273 2.15934C14.3796 2.07157 14.2078 2.0127 14.0236 2.0127H2.00086C1.76103 2.0127 1.54127 2.10582 1.37012 2.24784L8.00723 8.44016Z" fill="#005F99"/>
<path d="M0.99707 3.16895V10.9839C0.99707 11.0737 1.01769 11.1601 1.04007 11.2428L5.28186 7.15807L0.99707 3.16895Z" fill="#005F99"/>
</g>
<defs>
<clipPath id="clip0">
<rect width="13.9997" height="14" fill="white" transform="translate(0.99707)"/>
</clipPath>
</defs>
</svg>
