<svg width="32" height="32" viewBox="0 0 32 32" fill="none" xmlns="http://www.w3.org/2000/svg">
<path d="M10.3125 20.75C9.81313 20.75 9.375 20.2827 9.375 19.75C9.375 19.3571 9.62281 19.0029 9.99162 18.8686C10.4729 18.6932 11.0337 18.931 11.5295 19.5214C11.8626 19.9179 12.4539 19.9693 12.8504 19.6363C13.2469 19.3033 13.2983 18.7119 12.9653 18.3155C12.4585 17.712 11.8686 17.2972 11.25 17.0889V16C11.25 15.4822 10.8303 15.0625 10.3125 15.0625C9.79475 15.0625 9.375 15.4822 9.375 16V17.0982C9.36662 17.1012 9.35825 17.1038 9.34994 17.1068C8.24344 17.5098 7.5 18.5721 7.5 19.75C7.5 20.4972 7.78731 21.2092 8.309 21.7549C8.84538 22.316 9.55694 22.625 10.3125 22.625C10.8294 22.625 11.25 23.0456 11.25 23.5625C11.25 23.9401 11.0253 24.2793 10.6776 24.4266C10.2578 24.6043 9.75537 24.4526 9.29887 24.0104C8.92694 23.6501 8.33356 23.6595 7.97319 24.0313C7.61294 24.4032 7.62231 24.9967 7.99419 25.3569C8.41744 25.767 8.888 26.0567 9.375 26.2202V27.3125C9.375 27.8302 9.79475 28.25 10.3125 28.25C10.8303 28.25 11.25 27.8302 11.25 27.3125V26.2143C12.3934 25.8078 13.125 24.7409 13.125 23.5625C13.125 22.0117 11.8633 20.75 10.3125 20.75Z" fill="white"/>
<path d="M28.9375 1.17775C27.2112 0.41825 24.9472 0 22.5625 0C17.6824 0 13.1875 1.79194 13.1875 4.6875C13.1875 5.41194 13.1875 11.0446 13.1875 11.7216C12.2631 11.4524 11.2976 11.3125 10.3125 11.3125C7.56425 11.3125 4.97463 12.3985 3.02063 14.3705C1.07275 16.3363 0 18.9349 0 21.6875C0 27.3738 4.62619 32 10.3125 32C12.2101 32 14.0344 31.4901 15.6287 30.5351C17.3724 31.4706 19.8571 32 22.5625 32C24.9472 32 27.2112 31.5818 28.9375 30.8223C30.9124 29.9534 32 28.7069 32 27.3125C32 26.7286 32 5.2835 32 4.6875C32 3.293 30.9124 2.04656 28.9375 1.17775ZM10.3125 30.125C5.66006 30.125 1.875 26.3399 1.875 21.6875C1.875 17.0006 5.66006 13.1875 10.3125 13.1875C14.9994 13.1875 18.8125 17.0006 18.8125 21.6875C18.8125 26.3399 14.9994 30.125 10.3125 30.125ZM30.125 27.3125C30.125 28.4592 27.1789 30.125 22.5625 30.125C20.5986 30.125 18.7434 29.8103 17.3356 29.2588C17.4349 29.1675 17.5332 29.0748 17.6296 28.9794C18.4737 28.1429 19.1549 27.1897 19.6588 26.1576C20.5902 26.3013 21.5632 26.375 22.5625 26.375C25.0277 26.375 28.0847 25.8958 30.125 24.5613V27.3125ZM30.125 21.6875C30.125 22.8342 27.1789 24.5 22.5625 24.5C21.7977 24.5 21.0521 24.4522 20.3337 24.3596C20.5666 23.4981 20.6875 22.6017 20.6875 21.6875C20.6875 21.3194 20.6674 20.9542 20.6291 20.5927C21.2606 20.6552 21.9069 20.6875 22.5625 20.6875C25.0279 20.6875 28.0847 20.2083 30.125 18.8738V21.6875ZM30.125 16C30.125 17.1467 27.1789 18.8125 22.5625 18.8125C21.7645 18.8125 20.9838 18.7603 20.2329 18.6589C19.7463 17.0806 18.8783 15.6279 17.6756 14.4115C19.125 14.8348 20.8086 15.0625 22.5625 15.0625C25.0279 15.0625 28.0847 14.5833 30.125 13.2488V16ZM30.125 10.375C30.125 11.5217 27.1789 13.1875 22.5625 13.1875C20.4371 13.1875 18.4534 12.8261 16.9771 12.1699C15.7961 11.6451 15.0625 10.9573 15.0625 10.375V7.57469C17.0921 8.90506 20.1232 9.375 22.5625 9.375C25.0279 9.375 28.0847 8.89575 30.125 7.56131V10.375ZM22.5625 7.5C17.9827 7.5 15.0625 5.85906 15.0625 4.6875C15.0625 3.51231 17.9911 1.875 22.5625 1.875C27.1789 1.875 30.125 3.54075 30.125 4.6875C30.125 5.83425 27.1789 7.5 22.5625 7.5Z" fill="white"/>
</svg>
