<svg width="32" height="32" viewBox="0 0 32 32" fill="none" xmlns="http://www.w3.org/2000/svg">
<g clip-path="url(#clip0)">
<path d="M3.02706 25.6H3.20005L11.546 23.7837C11.7085 23.7567 11.8592 23.6814 11.9783 23.5675L26.1187 9.4271C27.1517 8.39637 27.728 6.99441 27.7187 5.53526C27.7206 4.06478 27.1462 2.65215 26.1187 1.60015C25.0881 0.567181 23.6861 -0.00914439 22.2269 0.000208582C20.7584 -0.0127863 19.3498 0.581914 18.3351 1.64344L4.23781 15.7838C4.11349 15.8839 4.02286 16.0197 3.97833 16.173L2.1622 24.5189C2.11262 24.8185 2.20896 25.1238 2.42168 25.3406C2.58134 25.5034 2.79894 25.5967 3.02706 25.6ZM22.2269 1.72993C24.3047 1.72976 25.9891 3.41404 25.9893 5.49181C25.9893 5.5063 25.9892 5.52078 25.989 5.53526C26.0032 6.52511 25.6127 7.47787 24.908 8.17305L19.5891 2.8109C20.2898 2.11456 21.239 1.72554 22.2269 1.72993ZM18.3783 4.06503L23.6971 9.38389L11.3729 21.6648L6.05403 16.3892L18.3783 4.06503ZM5.36216 18.119L9.64317 22.4L4.15132 23.6108L5.36216 18.119Z" fill="white"/>
<path d="M30.4866 30.2705H1.51379C1.03612 30.2705 0.648926 30.6577 0.648926 31.1354C0.648926 31.613 1.03612 32.0002 1.51379 32.0002H30.4866C30.9642 32.0002 31.3514 31.613 31.3514 31.1354C31.3514 30.6577 30.9642 30.2705 30.4866 30.2705Z" fill="white"/>
</g>
<defs>
<clipPath id="clip0">
<rect width="32" height="32" fill="white"/>
</clipPath>
</defs>
</svg>
