<svg width="32" height="32" viewBox="0 0 32 32" fill="none" xmlns="http://www.w3.org/2000/svg">
<g clip-path="url(#clip0)">
<path d="M31.1864 26.0752L16.8956 8.46084C17.0992 8.1139 17.056 7.69253 16.8162 7.39653L15.6496 5.95765C17.7835 4.36747 19.2466 3.94709 22.452 3.83215C23.3859 3.79872 23.6992 2.56034 22.8931 2.08703C18.0074 -0.781972 13.4299 -0.692847 9.65548 2.3449L5.67266 5.55059C5.2681 5.87615 5.20541 6.46934 5.53316 6.87228C5.85366 7.2664 5.80235 7.85021 5.3906 8.18159C4.98729 8.50621 4.39454 8.4434 4.06935 8.04146C3.74435 7.63978 3.15573 7.57684 2.75316 7.9004L1.04741 9.2714C-0.163336 10.2458 -0.353398 12.0132 0.626352 13.2218L2.9851 16.1312C3.96041 17.3342 5.73491 17.521 6.94004 16.5511L8.64529 15.1804C9.04966 14.8553 9.1131 14.2628 8.78616 13.8595C8.46104 13.4585 8.52441 12.8738 8.92635 12.5503C9.33016 12.2253 9.92366 12.288 10.2497 12.69C10.5057 13.0057 10.9244 13.1106 11.2874 12.9836L25.5362 30.6461C26.7997 32.2128 29.0897 32.4518 30.6495 31.1906C32.2132 29.9261 32.4537 27.6366 31.1864 26.0752ZM12.7824 11.8507L15.474 9.68434L17.5157 12.2009L14.8156 14.3709L12.7824 11.8507ZM6.71935 12.9787C6.67441 13.4011 6.72448 13.8191 6.86223 14.2082L5.76491 15.0903C5.36116 15.4152 4.76754 15.3525 4.4416 14.9505L2.08285 12.0412C1.7581 11.6406 1.82079 11.0557 2.22254 10.7323L3.3241 9.8469C4.31054 10.4523 5.61466 10.408 6.5661 9.64209C7.5371 8.86065 7.83754 7.59397 7.4566 6.5214L10.831 3.80553C13.2169 1.88534 15.9337 1.39584 18.9362 2.33753C17.0554 2.75478 15.6089 3.56322 13.731 5.07465C13.3269 5.39984 13.2639 5.99215 13.5905 6.39521L14.7672 7.84653L10.9933 10.884C9.22641 9.80178 6.93704 10.9318 6.71935 12.9787ZM29.4707 29.7327C28.7156 30.3431 27.6079 30.2283 26.9955 29.4691L15.9927 15.8302L18.6969 13.6568L29.7305 27.2564C30.3439 28.0122 30.2277 29.1206 29.4707 29.7327Z" fill="white"/>
</g>
<defs>
<clipPath id="clip0">
<rect width="32" height="32" fill="white"/>
</clipPath>
</defs>
</svg>
