<svg width="32" height="32" viewBox="0 0 32 32" fill="none" xmlns="http://www.w3.org/2000/svg">
<g clip-path="url(#clip0)">
<path d="M31.5896 14.6736L16.7419 0.300328C16.3283 -0.100109 15.6716 -0.100109 15.2581 0.300328L0.410145 14.6736C-0.276793 15.3385 0.19527 16.5066 1.15202 16.5066H4.87733V30.9333C4.87733 31.5224 5.3549 32 5.94402 32C6.59196 32 25.3788 32 26.0557 32C26.6448 32 27.1224 31.5225 27.1224 30.9333V16.5067H30.8477C31.8037 16.5067 32.2773 15.3392 31.5896 14.6736ZM18.4118 29.8667H13.5881V22.0886H18.4118V29.8667ZM24.9891 29.8667H20.5451V21.0219C20.5451 20.4328 20.0676 19.9552 19.4785 19.9552H12.5215C11.9324 19.9552 11.4548 20.4328 11.4548 21.0219V29.8667H7.01077V16.5067H24.9891V29.8667ZM3.78758 14.3734L15.9999 2.55127L28.2122 14.3733C27.3657 14.3734 4.81277 14.3734 3.78758 14.3734Z" fill="white"/>
</g>
<defs>
<clipPath id="clip0">
<rect width="32" height="32" fill="white"/>
</clipPath>
</defs>
</svg>
