<svg width="32" height="32" viewBox="0 0 32 32" fill="none" xmlns="http://www.w3.org/2000/svg">
<g clip-path="url(#clip0)">
<path d="M16.0001 32C15.3016 32 14.6761 31.6378 14.327 31.031C14.3233 31.0246 14.3198 31.0182 14.3162 31.0117L6.38107 16.4876C4.48695 13.0207 4.54126 8.90559 6.52638 5.47984C8.46845 2.12834 11.9179 0.0807813 15.7538 0.00253125C15.9177 -0.00084375 16.0824 -0.00084375 16.2462 0.00253125C20.0821 0.0807813 23.5316 2.12834 25.4738 5.47984C27.4589 8.90559 27.5132 13.0206 25.6191 16.4876L17.6839 31.0117C17.6804 31.0182 17.6768 31.0246 17.6731 31.031C17.3241 31.6377 16.6986 32 16.0001 32ZM16.0001 2.00003C15.9314 2.00003 15.8629 2.00072 15.7945 2.00209C12.6633 2.06597 9.84545 3.74091 8.25676 6.48259C6.62507 9.29853 6.57995 12.6802 8.13614 15.5286L16.0001 29.9223L23.8639 15.5287C25.4201 12.6802 25.3751 9.29853 23.7433 6.48259C22.1546 3.74097 19.3367 2.06597 16.2055 2.00209C16.1373 2.00072 16.0688 2.00003 16.0001 2.00003Z" fill="white"/>
<path d="M16 14.5C13.5187 14.5 11.5 12.4813 11.5 10C11.5 7.51869 13.5187 5.5 16 5.5C18.4813 5.5 20.5 7.51869 20.5 10C20.5 12.4813 18.4814 14.5 16 14.5ZM16 7.5C14.6215 7.5 13.5 8.6215 13.5 10C13.5 11.3785 14.6215 12.5 16 12.5C17.3785 12.5 18.5 11.3785 18.5 10C18.5 8.6215 17.3785 7.5 16 7.5Z" fill="white"/>
</g>
<defs>
<clipPath id="clip0">
<rect width="32" height="32" fill="white"/>
</clipPath>
</defs>
</svg>
