<svg width="32" height="32" viewBox="0 0 32 32" fill="none" xmlns="http://www.w3.org/2000/svg">
<g clip-path="url(#clip0)">
<path d="M16.0007 0C10.1104 0 5.31836 4.792 5.31836 10.6823C5.31836 16.5723 10.1104 21.3646 16.0007 21.3646C21.8907 21.3646 26.683 16.5723 26.683 10.6823C26.683 4.792 21.8907 0 16.0007 0ZM16.0007 19.2632C11.2693 19.2632 7.4198 15.4137 7.4198 10.6823C7.4198 5.95094 11.2693 2.10144 16.0007 2.10144C20.7324 2.10144 24.5815 5.95094 24.5815 10.6823C24.5815 15.4137 20.7324 19.2632 16.0007 19.2632Z" fill="white"/>
<path d="M23.4588 30.5316L22.9334 18.063L20.8341 18.1512L21.2922 29.0192L16.9517 25.2793C16.4092 24.7725 15.5907 24.7718 15.0479 25.2793L10.7077 29.0188L11.1658 18.1512L9.0661 18.063L8.54073 30.5316C8.54035 30.5462 8.54004 30.561 8.54004 30.5757C8.54004 31.1322 8.86329 31.6404 9.36379 31.8702C9.86673 32.1021 10.4446 32.0191 10.8719 31.6516L16.0001 27.2333L21.1297 31.6533C21.3959 31.8813 21.7213 31.9994 22.0505 31.9994C22.2487 31.9994 22.448 31.957 22.6364 31.8701C23.1365 31.6404 23.4598 31.1322 23.4598 30.5756C23.4598 30.5609 23.4595 30.5462 23.4588 30.5316Z" fill="white"/>
<path d="M20.6663 7.48756C20.2558 7.07706 19.5911 7.07706 19.1806 7.48756L14.6044 12.0638L12.4753 9.90881C12.0673 9.49587 11.4021 9.49169 10.9892 9.89969C10.5763 10.3077 10.5721 10.9728 10.9801 11.3857L13.852 14.2927C14.0488 14.4921 14.3164 14.6044 14.5963 14.6052C14.5973 14.6052 14.5984 14.6052 14.5994 14.6052C14.8778 14.6052 15.1454 14.4945 15.3426 14.297L20.6662 8.97338C21.0768 8.56313 21.0768 7.89769 20.6663 7.48756Z" fill="white"/>
</g>
<defs>
<clipPath id="clip0">
<rect width="32" height="32" fill="white"/>
</clipPath>
</defs>
</svg>
