<svg width="132" height="136" viewBox="0 0 132 136" fill="none" xmlns="http://www.w3.org/2000/svg">
<path d="M125.812 94.3859V18.7266C125.812 14.2593 122.285 10.625 117.949 10.625H99.2578V7.96875C99.2578 3.57478 95.7882 0 91.5234 0C87.2587 0 83.7891 3.57478 83.7891 7.96875V10.625H42.0234V7.96875C42.0234 3.57478 38.5538 0 34.2891 0C30.0243 0 26.5547 3.57478 26.5547 7.96875V10.625H7.86328C3.52765 10.625 0 14.2593 0 18.7266V117.273C0 121.741 3.52765 125.375 7.86328 125.375H43.0034C44.427 125.375 45.5815 124.186 45.5815 122.719C45.5815 121.252 44.427 120.062 43.0034 120.062H7.86328C6.37055 120.062 5.15625 118.811 5.15625 117.273V18.7266C5.15625 17.1886 6.37055 15.9375 7.86328 15.9375H26.5547V18.5938C26.5547 22.9877 30.0243 26.5625 34.2891 26.5625C38.5538 26.5625 42.0234 22.9877 42.0234 18.5938V15.9375H83.7891V18.5938C83.7891 22.9877 87.2587 26.5625 91.5234 26.5625C95.7882 26.5625 99.2578 22.9877 99.2578 18.5938V15.9375H117.949C119.442 15.9375 120.656 17.1886 120.656 18.7266V31.875H23.2031C21.7795 31.875 20.625 33.0642 20.625 34.5312C20.625 35.9983 21.7795 37.1875 23.2031 37.1875H120.656V89.8973C118.461 88.4709 116.03 87.3978 113.438 86.7547V47.2812C113.438 45.8142 112.283 44.625 110.859 44.625H14.9531C13.5295 44.625 12.375 45.8142 12.375 47.2812V109.969C12.375 111.436 13.5295 112.625 14.9531 112.625H83.582C83.7421 115.232 84.2915 117.732 85.1725 120.062H63.6281C62.2045 120.062 61.05 121.252 61.05 122.719C61.05 124.186 62.2045 125.375 63.6281 125.375H87.9406C92.3304 131.796 99.5801 136 107.766 136C121.129 136 132 124.799 132 111.031C132 104.642 129.658 98.8067 125.812 94.3859ZM36.8672 18.5938C36.8672 20.0584 35.7106 21.25 34.2891 21.25C32.8675 21.25 31.7109 20.0584 31.7109 18.5938V7.96875C31.7109 6.50409 32.8675 5.3125 34.2891 5.3125C35.7106 5.3125 36.8672 6.50409 36.8672 7.96875V18.5938ZM94.1016 18.5938C94.1016 20.0584 92.945 21.25 91.5234 21.25C90.1019 21.25 88.9453 20.0584 88.9453 18.5938V7.96875C88.9453 6.50409 90.1019 5.3125 91.5234 5.3125C92.945 5.3125 94.1016 6.50409 94.1016 7.96875V18.5938ZM107.766 86.0625C106.567 86.0625 105.389 86.1541 104.236 86.3281H94.2562V70.9219H108.281V86.0691C108.11 86.0654 107.938 86.0625 107.766 86.0625ZM83.8001 107.312H75.075V91.6406H89.1V95.124C86.3509 98.5424 84.4679 102.725 83.8001 107.312ZM17.5312 70.9219H31.5562V86.3281H17.5312V70.9219ZM36.7125 70.9219H50.7375V86.3281H36.7125V70.9219ZM75.075 70.9219H89.1V86.3281H75.075V70.9219ZM69.9188 86.3281H55.8937V70.9219H69.9188V86.3281ZM75.075 65.6094V49.9375H89.1V65.6094H75.075ZM69.9188 65.6094H55.8937V49.9375H69.9188V65.6094ZM50.7375 65.6094H36.7125V49.9375H50.7375V65.6094ZM50.7375 91.6406V107.312H36.7125V91.6406H50.7375ZM55.8937 91.6406H69.9188V107.312H55.8937V91.6406ZM108.281 65.6094H94.2562V49.9375H108.281V65.6094ZM31.5562 49.9375V65.6094H17.5312V49.9375H31.5562ZM17.5312 91.6406H31.5562V107.312H17.5312V91.6406ZM107.766 130.688C97.2458 130.688 88.6875 121.87 88.6875 111.031C88.6875 100.193 97.2458 91.375 107.766 91.375C118.285 91.375 126.844 100.193 126.844 111.031C126.844 121.87 118.285 130.688 107.766 130.688Z" fill="#0094DF"/>
<path d="M115.224 104.593L107.25 112.808L103.702 109.153C102.696 108.116 101.064 108.116 100.056 109.153C99.0491 110.19 99.0491 111.872 100.056 112.909L105.427 118.443C105.911 118.941 106.566 119.221 107.25 119.221C107.934 119.221 108.589 118.941 109.073 118.443L118.87 108.349C119.876 107.312 119.876 105.63 118.87 104.593C117.863 103.556 116.231 103.556 115.224 104.593Z" fill="#0094DF"/>
<path d="M53.3159 120.062C52.6379 120.062 51.9727 120.347 51.4932 120.841C51.0139 121.335 50.7378 122.02 50.7378 122.719C50.7378 123.417 51.0137 124.103 51.4932 124.597C51.9727 125.091 52.6379 125.375 53.3159 125.375C53.994 125.375 54.6591 125.091 55.1387 124.597C55.6179 124.103 55.894 123.417 55.894 122.719C55.894 122.02 55.6182 121.335 55.1387 120.841C54.6591 120.347 53.994 120.062 53.3159 120.062Z" fill="#0094DF"/>
<path d="M14.7131 36.4092C15.1929 35.9152 15.4688 35.2298 15.4688 34.5312C15.4688 33.8327 15.1929 33.1473 14.7131 32.6533C14.2338 32.1592 13.5687 31.875 12.8906 31.875C12.2097 31.875 11.5474 32.1592 11.0679 32.6533C10.5884 33.1473 10.3125 33.8327 10.3125 34.5312C10.3125 35.2298 10.5881 35.9152 11.0679 36.4092C11.5477 36.9033 12.2097 37.1875 12.8906 37.1875C13.5687 37.1875 14.2338 36.9033 14.7131 36.4092Z" fill="#0094DF"/>
</svg>
