<svg width="132" height="136" viewBox="0 0 132 136" fill="none" xmlns="http://www.w3.org/2000/svg">
<g clip-path="url(#clip0)">
<path d="M130.392 67.665C133.032 63.2444 132.37 57.6134 128.781 53.9712L123.635 48.7482C122.468 47.5633 121.864 45.9174 121.981 44.2331L122.496 36.7736C122.856 31.5724 119.723 26.8886 114.877 25.3836L108.063 23.2671C106.483 22.7762 105.201 21.6005 104.546 20.041L101.693 13.2618C99.6997 8.52195 94.6798 5.80434 89.761 6.79884L82.8472 8.19683C81.2202 8.52594 79.5465 8.09908 78.2561 7.02569L72.7523 2.44738C68.8398 -0.807328 63.1602 -0.807328 59.2476 2.44738L53.7438 7.02569C52.4532 8.09908 50.7795 8.52541 49.1527 8.19683L42.2382 6.79858C37.3196 5.80381 32.3008 8.52142 30.3061 13.2604L27.4524 20.0416C26.7965 21.6008 25.5141 22.7765 23.935 23.2671L17.1221 25.3833C12.2767 26.8883 9.14355 31.5718 9.5032 36.773L10.0188 44.2331C10.1354 45.9174 9.53208 47.563 8.3647 48.7482L3.21851 53.9712C-0.369729 57.6134 -1.03231 63.2444 1.60769 67.6647L5.41275 74.0354C6.27023 75.4714 6.47468 77.2155 5.97401 78.8201L3.74779 85.9532C2.20324 90.9024 4.15462 96.2122 8.49335 98.8663L14.6605 102.639C16.0738 103.503 17.0429 104.957 17.319 106.626L18.5328 113.962C19.3862 119.119 23.5243 122.902 28.5955 123.162L35.6596 123.524C37.3119 123.608 38.834 124.435 39.8351 125.792L44.1421 131.63C46.2185 134.445 49.4476 135.991 52.7365 135.991C54.2636 135.991 55.8043 135.658 57.2478 134.964L63.633 131.892C65.1373 131.168 66.8629 131.168 68.3667 131.892L74.7517 134.964C79.3052 137.155 84.8172 135.753 87.8581 131.63L92.1636 125.793C93.1649 124.435 94.687 123.608 96.3399 123.524L103.405 123.162C108.476 122.902 112.614 119.119 113.468 113.962L114.681 106.627C114.957 104.957 115.926 103.504 117.34 102.64L123.507 98.8671C127.846 96.213 129.797 90.9029 128.252 85.954L126.026 78.8207C125.525 77.2155 125.73 75.4717 126.587 74.036L130.392 67.665ZM122.196 71.2514C120.549 74.0107 120.156 77.3616 121.118 80.4455L123.344 87.5789C124.148 90.1544 123.133 92.9177 120.875 94.2989L114.708 98.0713C111.992 99.7328 110.129 102.525 109.599 105.733L108.385 113.068C107.941 115.752 105.788 117.721 103.149 117.856L96.0836 118.218C92.9076 118.38 89.9827 119.97 88.0587 122.578L83.7532 128.416C82.1707 130.561 79.3021 131.29 76.9325 130.151L70.5475 127.078C67.6572 125.688 64.3417 125.688 61.4514 127.078L55.0661 130.151C52.6966 131.29 49.8282 130.561 48.2457 128.416L43.9387 122.578C42.0146 119.969 39.09 118.38 35.9145 118.218L28.8505 117.856C26.2115 117.721 24.0583 115.752 23.6141 113.069L22.4005 105.733C21.8697 102.525 20.0078 99.7328 17.2917 98.0716L11.1246 94.2992C8.86666 92.9182 7.85088 90.1546 8.655 87.5791L10.8812 80.4458C11.8434 77.3619 11.4507 74.011 9.80278 71.2517L5.99772 64.8807C4.62384 62.5804 4.96879 59.65 6.83613 57.7545L11.9823 52.5315C14.2261 50.2543 15.3844 47.092 15.1609 43.8554L14.6453 36.3953C14.4581 33.6889 16.0885 31.2515 18.6102 30.4682L25.4231 28.3519C28.4578 27.4095 30.9215 25.1501 32.1822 22.1544L35.0359 15.3735C35.9303 13.2485 37.9928 11.9044 40.1842 11.9044C40.5361 11.9044 40.8911 11.9392 41.2451 12.0109L48.1596 13.4092C51.2869 14.0411 54.5026 13.2209 56.9819 11.1585L62.4852 6.57944C64.5214 4.88555 67.477 4.88555 69.5132 6.57944L75.017 11.1575C77.4966 13.2203 80.7126 14.0403 83.8396 13.4081L90.7533 12.0101C93.3139 11.4919 95.9253 12.9066 96.963 15.3732L99.8154 22.1525C101.076 25.149 103.54 27.4084 106.575 28.3511L113.39 30.4676C115.911 31.2507 117.542 33.6883 117.355 36.395L116.839 43.8549C116.615 47.0918 117.774 50.2538 120.018 52.5312L125.164 57.7542C127.031 59.6497 127.376 62.5798 126.002 64.8804L122.196 71.2514Z" fill="#0094DF"/>
<path d="M35.0618 32.2888C34.0604 31.2465 32.4285 31.238 31.4165 32.2699L31.3789 32.3087C30.3672 33.3404 30.359 35.0221 31.3606 36.0644C31.8649 36.589 32.5285 36.8514 33.1926 36.8514C33.848 36.8514 34.5033 36.5954 35.0061 36.0832L35.0437 36.0445C36.0551 35.0128 36.0634 33.3311 35.0618 32.2888Z" fill="#0094DF"/>
<path d="M114.146 58.7269C112.334 48.6929 107.661 39.561 100.631 32.3179C84.775 15.982 60.2558 12.8054 41.0034 24.5933C39.7795 25.3426 39.3771 26.9722 40.1044 28.2331C40.8319 29.4941 42.4133 29.9084 43.6372 29.1594C60.8609 18.613 82.7984 21.4568 96.9855 36.0739C109.67 49.1434 113.351 68.5872 106.362 85.6084C105.807 86.9591 106.42 88.5175 107.731 89.0889C108.059 89.2318 108.4 89.2993 108.735 89.2993C109.739 89.2993 110.694 88.6905 111.11 87.6776C114.865 78.5335 115.914 68.5223 114.146 58.7269Z" fill="#0094DF"/>
<path d="M100.639 99.9308C99.6381 98.8887 98.0058 98.88 96.9942 99.9119L96.9565 99.9507C95.9449 100.982 95.9366 102.664 96.9382 103.706C97.4425 104.231 98.1061 104.493 98.7703 104.493C99.4256 104.493 100.081 104.237 100.584 103.725L100.621 103.686C101.633 102.655 101.641 100.973 100.639 99.9308Z" fill="#0094DF"/>
<path d="M91.896 107.762C91.1687 106.501 89.587 106.087 88.3632 106.836C81.4103 111.093 73.6911 113.168 66.0219 113.168C54.6929 113.167 43.4747 108.637 35.0148 99.9212C22.3299 86.8517 18.6494 67.4079 25.6384 50.3867C26.1933 49.036 25.5799 47.4776 24.2689 46.9062C22.9582 46.3351 21.4454 46.9665 20.8908 48.3175C17.1361 57.4616 16.0865 67.4728 17.8548 77.2685C19.6665 87.3025 24.3398 96.4344 31.3699 103.677C40.8249 113.419 53.3603 118.481 66.0227 118.481C74.5947 118.481 83.2255 116.161 90.997 111.402C92.2206 110.652 92.623 109.023 91.896 107.762Z" fill="#0094DF"/>
<path d="M76.6526 46.2587C75.413 45.5375 73.8406 45.9883 73.1409 47.2657L49.2446 90.8778C48.5449 92.1552 48.9821 93.775 50.2219 94.4959C50.6226 94.7289 51.0572 94.8396 51.4868 94.8396C52.3863 94.8396 53.2602 94.3535 53.7336 93.4889L77.63 49.8768C78.3299 48.5994 77.8924 46.9796 76.6526 46.2587Z" fill="#0094DF"/>
<path d="M81.5287 74.4893C75.5593 74.4893 70.7026 79.4928 70.7026 85.6434C70.7026 91.7937 75.5591 96.7975 81.5287 96.7975C87.4981 96.7975 92.3548 91.7939 92.3548 85.6434C92.3548 79.4928 87.4983 74.4893 81.5287 74.4893ZM81.5287 91.4858C78.4017 91.4858 75.8579 88.8649 75.8579 85.6431C75.8579 82.4214 78.4017 79.8004 81.5287 79.8004C84.6557 79.8004 87.1995 82.4214 87.1995 85.6431C87.1995 88.8649 84.6557 91.4858 81.5287 91.4858Z" fill="#0094DF"/>
<path d="M50.4706 39.1978C44.5012 39.1978 39.6445 44.2013 39.6445 50.3519C39.6445 56.5024 44.5009 61.506 50.4706 61.506C56.44 61.506 61.2967 56.5024 61.2967 50.3519C61.2967 44.2013 56.4402 39.1978 50.4706 39.1978ZM50.4706 56.1943C47.3436 56.1943 44.7998 53.5734 44.7998 50.3516C44.7998 47.1298 47.3436 44.5089 50.4706 44.5089C53.5976 44.5089 56.1414 47.1298 56.1414 50.3516C56.1414 53.5734 53.5976 56.1943 50.4706 56.1943Z" fill="#0094DF"/>
</g>
<defs>
<clipPath id="clip0">
<rect width="132" height="136" fill="white"/>
</clipPath>
</defs>
</svg>
