<svg width="132" height="136" viewBox="0 0 132 136" fill="none" xmlns="http://www.w3.org/2000/svg">
<g clip-path="url(#clip0)">
<path d="M60.9095 92.2423C61.9176 91.2037 61.9176 89.5228 60.9095 88.4842C59.9005 87.4486 58.2658 87.4486 57.2558 88.4842C56.2487 89.5228 56.2487 91.2037 57.2558 92.2423C58.2658 93.2779 59.9005 93.2779 60.9095 92.2423Z" fill="#0094DF"/>
<path d="M48.6797 29.2105C48.6797 45.3171 61.423 58.422 77.0865 58.422C92.75 58.422 105.493 45.3171 105.493 29.2105C105.493 13.1038 92.75 0 77.0865 0C61.423 0 48.6797 13.1038 48.6797 29.2105ZM100.329 29.2105C100.329 42.389 89.9024 53.1105 77.0865 53.1105C64.2705 53.1105 53.844 42.389 53.844 29.2105C53.844 16.033 64.2705 5.31146 77.0865 5.31146C89.9024 5.31146 100.329 16.033 100.329 29.2105Z" fill="#0094DF"/>
<path d="M29.875 135.215C30.8759 136.252 32.5056 136.264 33.5196 135.237L46.0399 122.553C48.167 120.366 48.8138 117.127 47.8784 114.312L50.5716 111.642C52.0216 110.201 53.9307 109.408 55.9488 109.408H90.2798C96.3704 109.408 102.127 107.002 106.491 102.635C106.671 102.456 105.128 104.324 129.912 73.8647C133.588 69.3926 133.038 62.6773 128.685 58.8932C124.359 55.1443 117.879 55.6828 114.193 60.0781L98.9546 76.1837C97.0303 73.7485 94.096 72.2304 90.9256 72.2304H62.1283C58.0305 70.4676 53.6825 69.5752 49.1963 69.5752C36.7607 69.5752 25.9023 75.4812 20.0751 86.5545C17.62 86.0762 15.0308 86.8398 13.1681 88.7552L0.882905 101.425C-0.120092 102.46 -0.12211 104.133 0.878869 105.171L29.875 135.215ZM49.1953 74.8857C53.1507 74.8857 56.975 75.7043 60.5642 77.3188C60.8912 77.4662 61.2433 77.5419 61.5995 77.5419H90.9256C93.7257 77.5419 96.0909 79.89 96.0909 82.8523C96.0909 85.7815 93.7741 88.1638 90.9256 88.1638H69.8556C68.4298 88.1638 67.2734 89.3529 67.2734 90.819C67.2734 92.2862 68.4298 93.4742 69.8556 93.4742H90.9256C96.6217 93.4742 101.255 88.7096 101.255 82.8523C101.255 82.3854 101.223 81.9226 101.164 81.464C115.906 65.8824 117.984 63.6931 118.073 63.5841C119.914 61.3502 123.181 61.0669 125.354 62.9512C127.53 64.8427 127.805 68.2004 125.96 70.4468L102.797 98.9206C99.4147 102.26 94.9739 104.097 90.2798 104.097H55.9488C52.5847 104.097 49.4001 105.42 46.9844 107.82L44.7897 109.998L24.5583 89.1952C29.2867 80.0737 38.1593 74.8857 49.1953 74.8857ZM16.8229 92.5082C17.6745 91.6325 18.9823 91.4748 20.0206 92.1347C20.4676 92.4148 19.1841 91.2133 42.3882 115.041C43.4205 116.102 43.365 117.793 42.4023 118.783L31.7286 129.596L6.35398 103.304L16.8229 92.5082Z" fill="#0094DF"/>
<path d="M73.9871 13.2783V16.3901C70.9812 17.4858 68.8218 20.4377 68.8218 23.9002C68.8218 28.2924 72.297 31.8669 76.5693 31.8669C77.9931 31.8669 79.1515 33.0581 79.1515 34.5221C79.1515 35.9862 77.9931 37.1773 76.5693 37.1773C75.4664 37.1773 74.2747 36.4645 73.2162 35.1685C72.298 34.0458 70.6694 33.9016 69.5776 34.8448C68.4858 35.789 68.3445 37.4637 69.2628 38.5864C70.6432 40.2745 72.2667 41.4512 73.9871 42.0447V45.144C73.9871 46.6112 75.1435 47.7992 76.5693 47.7992C77.9951 47.7992 79.1515 46.6112 79.1515 45.144V42.0322C82.1574 40.9355 84.3168 37.9835 84.3168 34.5221C84.3168 30.1289 80.8416 26.5554 76.5693 26.5554C75.1455 26.5554 73.9871 25.3643 73.9871 23.9002C73.9871 22.4362 75.1455 21.244 76.5693 21.244C77.4845 21.244 78.4502 21.7244 79.3624 22.6323C80.3876 23.6522 82.0222 23.6242 83.0141 22.5711C84.006 21.5169 83.9788 19.8359 82.9546 18.816C81.6438 17.5117 80.3321 16.774 79.1515 16.3714V13.2783C79.1515 11.8112 77.9951 10.6221 76.5693 10.6221C75.1435 10.6221 73.9871 11.8112 73.9871 13.2783Z" fill="#0094DF"/>
</g>
<defs>
<clipPath id="clip0">
<rect width="132" height="136" fill="white"/>
</clipPath>
</defs>
</svg>
