<svg width="16" height="16" viewBox="0 0 16 16" fill="none" xmlns="http://www.w3.org/2000/svg">
<g clip-path="url(#clip0)">
<path d="M15.9841 4.70404C15.9466 3.8539 15.8091 3.26944 15.6122 2.76299C15.409 2.22541 15.0964 1.74412 14.6869 1.34401C14.2868 0.937683 13.8024 0.621948 13.271 0.421957C12.7616 0.22502 12.1802 0.0875415 11.3301 0.0500586C10.4736 0.00940124 10.2017 0 8.02939 0C5.85709 0 5.58519 0.00940124 4.73187 0.0468842C3.88173 0.0843671 3.29727 0.221967 2.79094 0.418783C2.25324 0.621948 1.77195 0.934509 1.37184 1.34401C0.965514 1.74412 0.649901 2.22858 0.449789 2.75994C0.252851 3.26944 0.115373 3.85073 0.0778906 4.70087C0.0372333 5.55736 0.027832 5.82926 0.027832 8.00156C0.027832 10.1739 0.0372333 10.4458 0.0747162 11.2991C0.112199 12.1492 0.249799 12.7337 0.446737 13.2401C0.649901 13.7777 0.965514 14.259 1.37184 14.6591C1.77195 15.0654 2.25641 15.3812 2.78777 15.5812C3.29727 15.7781 3.87856 15.9156 4.72882 15.9531C5.58201 15.9907 5.85404 16 8.02634 16C10.1986 16 10.4705 15.9907 11.3239 15.9531C12.174 15.9156 12.7585 15.7781 13.2648 15.5812C14.3401 15.1654 15.1902 14.3153 15.6059 13.2401C15.8028 12.7306 15.9404 12.1492 15.9778 11.2991C16.0153 10.4458 16.0247 10.1739 16.0247 8.00156C16.0247 5.82926 16.0215 5.55736 15.9841 4.70404ZM14.5432 11.2366C14.5088 12.018 14.3775 12.4399 14.2682 12.7212C13.9993 13.4183 13.4461 13.9715 12.7491 14.2403C12.4678 14.3497 12.0427 14.481 11.2644 14.5153C10.4205 14.5529 10.1674 14.5622 8.03256 14.5622C5.89775 14.5622 5.64147 14.5529 4.80061 14.5153C4.01921 14.481 3.59725 14.3497 3.31595 14.2403C2.96908 14.1121 2.65334 13.909 2.39707 13.6433C2.13139 13.3838 1.92823 13.0713 1.80003 12.7244C1.69063 12.4431 1.55938 12.018 1.52507 11.2397C1.48747 10.3958 1.47819 10.1426 1.47819 8.00779C1.47819 5.87297 1.48747 5.6167 1.52507 4.77596C1.55938 3.99455 1.69063 3.5726 1.80003 3.29129C1.92823 2.9443 2.13139 2.62869 2.40024 2.37229C2.65957 2.10661 2.97213 1.90345 3.31912 1.77537C3.60043 1.66597 4.02556 1.53472 4.80379 1.50029C5.6477 1.46281 5.90092 1.45341 8.03561 1.45341C10.1736 1.45341 10.4267 1.46281 11.2676 1.50029C12.049 1.53472 12.4709 1.66597 12.7522 1.77537C13.0991 1.90345 13.4148 2.10661 13.6711 2.37229C13.9368 2.63174 14.14 2.9443 14.2682 3.29129C14.3775 3.5726 14.5088 3.99761 14.5432 4.77596C14.5807 5.61987 14.5901 5.87297 14.5901 8.00779C14.5901 10.1426 14.5807 10.3927 14.5432 11.2366Z" fill="#C4C4C4"/>
<path d="M8.11018 4C5.84106 4 4 5.84094 4 8.11018C4 10.3794 5.84106 12.2204 8.11018 12.2204C10.3794 12.2204 12.2204 10.3794 12.2204 8.11018C12.2204 5.84094 10.3794 4 8.11018 4ZM8.11018 10.7763C6.63809 10.7763 5.44401 9.58239 5.44401 8.11018C5.44401 6.63797 6.63809 5.44401 8.11018 5.44401C9.58239 5.44401 10.7763 6.63797 10.7763 8.11018C10.7763 9.58239 9.58239 10.7763 8.11018 10.7763Z" fill="#C4C4C4"/>
<path d="M13.262 3.72886C13.262 4.25875 12.8323 4.6884 12.3023 4.6884C11.7724 4.6884 11.3428 4.25875 11.3428 3.72886C11.3428 3.19885 11.7724 2.76932 12.3023 2.76932C12.8323 2.76932 13.262 3.19885 13.262 3.72886Z" fill="#C4C4C4"/>
</g>
<defs>
<clipPath id="clip0">
<rect width="16" height="16" fill="white"/>
</clipPath>
</defs>
</svg>
