<svg width="16" height="16" viewBox="0 0 16 16" fill="none" xmlns="http://www.w3.org/2000/svg">
<path d="M8 16C12.4113 16 16 12.4113 16 8C16 3.58867 12.4113 0 8 0C3.58867 0 0 3.58867 0 8C0 12.4113 3.58867 16 8 16ZM8 1C11.86 1 15 4.14 15 8C15 11.86 11.86 15 8 15C4.14 15 1 11.86 1 8C1 4.14 4.14 1 8 1Z" fill="#C4C4C4"/>
<path d="M5.26398 9.43667L6.30931 8.98267L6.01598 9.27667C5.92198 9.37067 5.86931 9.49801 5.86931 9.63001V11.5867C5.86931 12.0347 6.41064 12.252 6.72264 11.94L7.77198 10.8907L10.0586 12.034C10.3546 12.182 10.7126 12.0067 10.774 11.676L12.0786 4.502C12.1473 4.116 11.7673 3.804 11.404 3.94667L2.92664 7.26467C2.54664 7.41267 2.49598 7.93267 2.83998 8.15201L4.79598 9.40001C4.93598 9.48934 5.11264 9.50334 5.26398 9.43667ZM10.9346 5.20534L9.90998 10.842L7.89664 9.83601C7.70198 9.73867 7.46998 9.77934 7.31998 9.93001L6.86931 10.3807V9.83867L8.87398 7.83401C9.26265 7.44534 8.82531 6.804 8.32131 7.022L5.10998 8.41534L4.20731 7.83934L10.9346 5.20534Z" fill="#C4C4C4"/>
</svg>
