<svg width="16" height="16" viewBox="0 0 16 16" fill="none" xmlns="http://www.w3.org/2000/svg">
<g clip-path="url(#clip0)">
<path d="M15.4362 9.26201C15.9136 5.24401 15.2069 2.70734 13.9322 1.56L13.9329 1.55934C11.8756 -0.399998 4.92757 -0.689999 2.46623 1.64734C1.3609 2.79067 0.971565 4.46867 0.928898 6.54601C0.886231 8.62401 0.835565 12.5167 4.4629 13.5727H4.46623L4.4629 15.1853C4.4629 15.1853 4.43823 15.8387 4.85556 15.97C5.3329 16.1247 5.5489 15.8213 7.03357 14.048C9.51623 14.2633 11.4229 13.77 11.6396 13.698C12.1409 13.53 14.9776 13.1547 15.4362 9.26201ZM7.27823 12.9133C7.27823 12.9133 5.7069 14.8727 5.21823 15.3813C5.05823 15.5467 4.8829 15.5313 4.88557 15.2033C4.88557 14.988 4.89757 12.526 4.89757 12.526C1.82223 11.6447 2.00356 8.33001 2.0369 6.59601C2.07023 4.86134 2.38756 3.44067 3.32357 2.484C5.4829 0.459336 11.5742 0.912003 13.1262 2.37067C15.0236 4.05267 14.3482 8.80468 14.3522 8.96668C13.9622 12.216 11.6636 12.422 11.2409 12.5627C11.0602 12.6227 9.38357 13.054 7.27823 12.9133Z" fill="#C4C4C4"/>
<path d="M8.14807 2.86467C7.8914 2.86467 7.8914 3.26467 8.14807 3.268C10.1394 3.28333 11.7794 4.67133 11.7974 7.21733C11.7974 7.486 12.1907 7.48267 12.1874 7.214H12.1867C12.1654 4.47067 10.3747 2.88 8.14807 2.86467Z" fill="#C4C4C4"/>
<path d="M10.7675 6.79533C10.7615 7.06066 11.1541 7.07333 11.1575 6.80466C11.1901 5.29199 10.2575 4.04599 8.50479 3.91466C8.24812 3.89599 8.22145 4.29933 8.47746 4.31799C9.99746 4.43333 10.7981 5.47066 10.7675 6.79533Z" fill="#C4C4C4"/>
<path d="M10.3473 8.51599C10.018 8.32533 9.68264 8.44399 9.54397 8.63133L9.25397 9.00666C9.10664 9.19733 8.83131 9.17199 8.83131 9.17199C6.82198 8.64066 6.28464 6.53799 6.28464 6.53799C6.28464 6.53799 6.25998 6.25333 6.44398 6.10066L6.80664 5.80066C6.98798 5.65666 7.10264 5.30999 6.91798 4.96933C6.42464 4.07799 6.09331 3.77066 5.92464 3.53466C5.74731 3.31266 5.48064 3.26266 5.20331 3.41266H5.19731C4.62065 3.74999 3.98931 4.38133 4.19131 5.03133C4.53598 5.71666 5.16931 7.90133 7.18797 9.55199C8.13664 10.3327 9.63797 11.1327 10.2753 11.3173L10.2813 11.3267C10.9093 11.536 11.52 10.88 11.846 10.286V10.2813C11.9906 9.99399 11.9426 9.72199 11.7313 9.54399C11.3566 9.17866 10.7913 8.77533 10.3473 8.51599Z" fill="#C4C4C4"/>
<path d="M8.7794 5.40267C9.42007 5.44 9.73074 5.77467 9.76407 6.46201C9.77607 6.73067 10.1661 6.71201 10.1541 6.44334C10.1114 5.546 9.64341 5.046 8.80073 4.99933C8.54406 4.984 8.52006 5.38734 8.7794 5.40267Z" fill="#C4C4C4"/>
</g>
<defs>
<clipPath id="clip0">
<rect width="16" height="16" fill="white"/>
</clipPath>
</defs>
</svg>
