<svg width="16" height="16" viewBox="0 0 16 16" fill="none" xmlns="http://www.w3.org/2000/svg">
<path fill-rule="evenodd" clip-rule="evenodd" d="M13.3059 2.67207C11.9026 1.2671 10.0363 0.493019 8.04806 0.492195C3.95108 0.492195 0.61673 3.82645 0.615082 7.92454C0.614532 9.23456 0.956757 10.5134 1.60724 11.6406L0.552734 15.4922L4.49307 14.4586C5.5788 15.0508 6.80112 15.3629 8.04504 15.3633H8.04816C12.1447 15.3633 15.4794 12.0288 15.481 7.93049C15.4818 5.94434 14.7093 4.07694 13.3059 2.67207ZM8.04806 14.108H8.0455C6.93698 14.1075 5.84979 13.8096 4.90112 13.2469L4.67563 13.1129L2.33737 13.7263L2.96149 11.4466L2.81454 11.2128C2.19611 10.2292 1.86954 9.09229 1.87009 7.92499C1.87137 4.51878 4.64285 1.74757 8.05054 1.74757C9.70068 1.74812 11.2519 2.39155 12.4182 3.5593C13.5846 4.72706 14.2266 6.27924 14.226 7.93003C14.2246 11.3365 11.4533 14.108 8.04806 14.108ZM11.4368 9.48102C11.2511 9.38801 10.338 8.93885 10.1677 8.87678C9.99759 8.8148 9.87362 8.78394 9.74994 8.96979C9.62607 9.15565 9.2702 9.57404 9.1618 9.69791C9.0534 9.82187 8.94519 9.83744 8.75943 9.74442C8.57367 9.65149 7.97528 9.4553 7.26584 8.82258C6.71377 8.33011 6.34106 7.72193 6.23267 7.53608C6.12445 7.35004 6.23175 7.25922 6.31415 7.15705C6.5152 6.90739 6.71652 6.64564 6.77841 6.52177C6.84039 6.3978 6.80936 6.28931 6.76285 6.19639C6.71652 6.10346 6.34509 5.18931 6.19037 4.81733C6.03949 4.45533 5.8865 4.50422 5.77243 4.49854C5.66421 4.49314 5.54034 4.49204 5.41647 4.49204C5.29269 4.49204 5.09146 4.53846 4.92117 4.72449C4.75098 4.91044 4.27124 5.35969 4.27124 6.27384C4.27124 7.18799 4.93674 8.07111 5.02957 8.19507C5.12241 8.31904 6.33923 10.195 8.20224 10.9993C8.64535 11.1909 8.99124 11.305 9.26105 11.3906C9.70599 11.532 10.1107 11.512 10.4308 11.4642C10.7877 11.4109 11.5295 11.0149 11.6844 10.5811C11.8392 10.1473 11.8392 9.77546 11.7927 9.69791C11.7463 9.62046 11.6225 9.57404 11.4368 9.48102Z" fill="#C4C4C4"/>
</svg>
