<svg width="17" height="16" viewBox="0 0 17 16" fill="none" xmlns="http://www.w3.org/2000/svg">
<path d="M11.2542 8.076L7.26986 5.576C7.11629 5.47967 6.92279 5.47457 6.76444 5.56267C6.60606 5.65077 6.50781 5.81824 6.50781 6V11C6.50781 11.1818 6.60606 11.3492 6.76444 11.4373C6.83968 11.4792 6.92282 11.5 7.00586 11.5C7.0976 11.5 7.18921 11.4746 7.26982 11.424L11.2542 8.924C11.3998 8.83264 11.4883 8.6724 11.4883 8.5C11.4883 8.3276 11.3999 8.16737 11.2542 8.076ZM7.50394 10.0979V6.9021L10.0506 8.5L7.50394 10.0979Z" fill="#C4C4C4"/>
<path d="M14.5098 2H2.49023C1.11712 2 0 3.1215 0 4.5V12.5C0 13.8785 1.11712 15 2.49023 15H14.5098C15.8829 15 17 13.8785 17 12.5V4.5C17 3.1215 15.8829 2 14.5098 2ZM16.0039 12.5C16.0039 13.3271 15.3336 14 14.5098 14H2.49023C1.66637 14 0.996094 13.3271 0.996094 12.5V4.5C0.996094 3.6729 1.66637 3 2.49023 3H14.5098C15.3336 3 16.0039 3.6729 16.0039 4.5V12.5Z" fill="#C4C4C4"/>
</svg>
