<svg width="85" height="80" viewBox="0 0 85 80" fill="none" xmlns="http://www.w3.org/2000/svg">
<g clip-path="url(#clip0)">
<path d="M81.3039 0.000244141H25.8694C24.3388 0.000244141 23.0977 1.16821 23.0977 2.60898V56.5216C23.0977 57.9623 24.3386 59.1304 25.8694 59.1304H81.3039C82.8345 59.1304 84.0757 57.9624 84.0757 56.5216V2.60882C84.0757 1.16821 82.8347 0.000244141 81.3039 0.000244141ZM78.5323 20.8697H70.2171C68.6864 20.8697 67.4453 22.0376 67.4453 23.4784C67.4453 24.9192 68.6863 26.0871 70.2171 26.0871H78.5323V53.9131H43.4237V46.087C43.4237 44.6464 42.1827 43.4783 40.6519 43.4783C39.1211 43.4783 37.8801 44.6462 37.8801 46.087V53.9131H28.6411V5.21756H37.8801V33.913C37.8801 35.3536 39.1211 36.5218 40.6519 36.5218C42.1827 36.5218 43.4237 35.3538 43.4237 33.913V26.087H57.2822C58.8129 26.087 60.054 24.919 60.054 23.4782C60.054 22.0375 58.8131 20.8695 57.2822 20.8695H43.4237V5.21756H78.5321V20.8697H78.5323Z" fill="#0094DF"/>
<path d="M83.2636 70.3285L77.7207 65.1115C76.6385 64.0927 74.8833 64.0927 73.8009 65.1115C72.7185 66.1302 72.7185 67.7819 73.8009 68.8007L74.6127 69.5649H21.4743L22.2861 68.8007C23.3685 67.7821 23.3685 66.1304 22.2862 65.1116C21.204 64.0929 19.4489 64.0929 18.3665 65.1116L12.8236 70.3286C11.7337 71.3533 11.7525 73.0116 12.8236 74.0188L18.3665 79.2358C19.4487 80.2545 21.2038 80.2547 22.2862 79.2358C23.3687 78.217 23.3687 76.5653 22.2862 75.5466L21.4743 74.7822H74.6126L73.8008 75.5464C72.7183 76.5652 72.7183 78.2169 73.8008 79.2356C74.883 80.2544 76.6381 80.2545 77.7205 79.2356L83.2634 74.0186C84.3444 73.0024 84.3419 71.3422 83.2636 70.3285Z" fill="#0094DF"/>
<path d="M12.8231 54.677L12.0112 55.4411V8.90667L12.8231 9.67072C13.9054 10.6895 15.6605 10.6896 16.7429 9.67072C17.8253 8.65214 17.8255 7.00027 16.7429 5.98153L11.1994 0.764058C10.1171 -0.254686 8.362 -0.254686 7.27959 0.764058L1.73619 5.98137C0.653775 6.99996 0.653609 8.65182 1.73619 9.67057C2.81844 10.6893 4.57355 10.6893 5.65596 9.67057L6.46777 8.90651V55.4408L5.65596 54.6767C4.57371 53.658 2.81861 53.658 1.73619 54.6767C0.653775 55.6953 0.653609 57.3472 1.73619 58.3659L7.27959 63.5832C8.36183 64.602 10.1169 64.6021 11.1994 63.5832L16.7428 58.3659C17.8252 57.3473 17.8253 55.6955 16.7428 54.6767C15.6607 53.6583 13.9056 53.6583 12.8231 54.677Z" fill="#0094DF"/>
</g>
<defs>
<clipPath id="clip0">
<rect width="85" height="80" fill="white"/>
</clipPath>
</defs>
</svg>
