<svg width="85" height="80" viewBox="0 0 85 80" fill="none" xmlns="http://www.w3.org/2000/svg">
<path d="M78.1578 0.00793457H6.82543C3.0614 0.00793457 0 2.88926 0 6.43187V73.584C0 77.1109 3.0614 79.9922 6.82543 79.9922H78.1746C81.9386 79.9922 85 77.1109 85 73.5683V6.43187C84.9833 2.88926 81.9219 0.00793457 78.1578 0.00793457ZM40.1328 75.5521H6.82543C5.67113 75.5521 4.7343 74.6704 4.7343 73.584V6.43187C4.7343 5.34547 5.67113 4.46375 6.82543 4.46375H40.1328V75.5521ZM78.1746 75.5364H44.8504V4.44801H78.1578C79.3121 4.44801 80.249 5.32972 80.249 6.41612V73.5683H80.2657C80.2657 74.6547 79.3289 75.5364 78.1746 75.5364Z" fill="#0094DF"/>
<path d="M31.5675 41.7162C30.6474 40.8502 29.1585 40.8502 28.2217 41.7162L24.7923 44.9439V29.6871C24.7923 28.459 23.7383 27.467 22.4335 27.467C21.1286 27.467 20.0747 28.459 20.0747 29.6871V44.9439L16.6452 41.7319C15.7251 40.866 14.2363 40.866 13.2994 41.7319C12.3794 42.5979 12.3794 43.9992 13.2994 44.8809L20.7606 51.8874C21.229 52.3283 21.8312 52.533 22.4335 52.533C23.0357 52.533 23.638 52.3125 24.1064 51.8874L31.5675 44.8652C32.4876 43.9992 32.4876 42.5979 31.5675 41.7162Z" fill="#0094DF"/>
<path d="M71.6832 35.1348L64.2221 28.1126C63.7537 27.6717 63.1514 27.467 62.5492 27.467C61.947 27.467 61.3447 27.6875 60.8763 28.1126L53.4152 35.1348C52.4951 36.0008 52.4951 37.4021 53.4152 38.2838C54.3353 39.1498 55.8241 39.1498 56.761 38.2838L60.1904 35.0561V50.3129C60.1904 51.541 61.2443 52.533 62.5492 52.533C63.8541 52.533 64.908 51.541 64.908 50.3129V35.0561L68.3374 38.2838C69.2575 39.1498 70.7464 39.1498 71.6832 38.2838C72.6033 37.4178 72.6033 36.0165 71.6832 35.1348Z" fill="#0094DF"/>
</svg>
