<svg width="84" height="80" viewBox="0 0 84 80" fill="none" xmlns="http://www.w3.org/2000/svg">
<g clip-path="url(#clip0)">
<path d="M1.14503 42.372C6.11415 46.4312 11.7461 51.0323 22.64 51.0323C33.5342 51.0321 39.1665 46.4312 44.1358 42.372C48.8352 38.5332 52.8938 35.2178 61.3591 35.2178C69.8245 35.2178 73.8831 38.5332 78.5824 42.372C79.958 43.4956 82.0295 43.3446 83.2093 42.0346C84.389 40.7245 84.2305 38.7517 82.8549 37.6281C77.8856 33.5689 72.2533 28.9678 61.3591 28.9678C50.4648 28.9678 44.8326 33.5687 39.8633 37.6281C35.1639 41.4668 31.1053 44.7823 22.64 44.7823C14.1749 44.7823 10.1168 41.467 5.41771 37.6281C4.04221 36.5045 1.97076 36.6553 0.790818 37.9654C-0.38912 39.2754 -0.230471 41.2484 1.14503 42.372Z" fill="#0094DF"/>
<path d="M1.14503 25.2792C6.11399 29.3386 11.7459 33.9395 22.64 33.9395C33.5342 33.9395 39.1665 29.3386 44.1358 25.2792C48.8352 21.4405 52.8936 18.125 61.3591 18.125C69.8242 18.125 73.8828 21.4403 78.5824 25.2792C79.958 26.4031 82.0293 26.2517 83.2091 24.9416C84.389 23.6316 84.23 21.6584 82.8546 20.535C77.8853 16.4756 72.253 11.875 61.3591 11.875C50.4648 11.875 44.8326 16.4759 39.8633 20.5353C35.1639 24.3741 31.1053 27.6895 22.64 27.6895C14.175 27.6895 10.1168 24.3742 5.41771 20.5353C4.04221 19.4116 1.97059 19.5625 0.790818 20.8727C-0.38912 22.1827 -0.230471 24.1556 1.14503 25.2792Z" fill="#0094DF"/>
<path d="M82.8557 54.7207C77.8864 50.6615 72.2542 46.0604 61.3599 46.0604C50.4657 46.0604 44.8334 50.6614 39.8641 54.7207C35.1647 58.5595 31.1061 61.875 22.6408 61.875C14.1762 61.875 10.1178 58.5596 5.41871 54.721L5.41838 54.7207C4.04288 53.5975 1.97159 53.7484 0.791657 55.0582C-0.388116 56.3682 -0.229467 58.3412 1.14603 59.4648C6.11516 63.5242 11.7473 68.125 22.6408 68.125C33.5351 68.125 39.1674 63.524 44.1366 59.4646C48.836 55.6259 52.8946 52.3104 61.3599 52.3104C69.8254 52.3104 73.884 55.6259 78.5832 59.4646C79.9589 60.5882 82.0303 60.4373 83.2101 59.1273C84.3899 57.8171 84.2314 55.8443 82.8557 54.7207Z" fill="#0094DF"/>
</g>
<defs>
<clipPath id="clip0">
<rect width="84" height="80" fill="white"/>
</clipPath>
</defs>
</svg>
