<svg width="16" height="12" viewBox="0 0 16 12" fill="none" xmlns="http://www.w3.org/2000/svg">
<path d="M15.9023 5.76431L10.9023 0.764305C10.7721 0.634087 10.5612 0.634087 10.431 0.764305C10.3008 0.894524 10.3008 1.10546 10.431 1.23565L14.862 5.66665H0.333344C0.149094 5.66665 0 5.81574 0 5.99999C0 6.18424 0.149094 6.33334 0.333344 6.33334H14.862L10.431 10.7643C10.3008 10.8945 10.3008 11.1055 10.431 11.2356C10.4961 11.3007 10.5814 11.3333 10.6667 11.3333C10.752 11.3333 10.8372 11.3007 10.9024 11.2356L15.9024 6.23565C16.0326 6.10546 16.0326 5.89452 15.9023 5.76431Z" fill="#192028"/>
</svg>
