<svg width="16" height="16" viewBox="0 0 16 16" fill="none" xmlns="http://www.w3.org/2000/svg">
<g clip-path="url(#clip0)">
<path d="M11.375 5.37692C11.9273 5.37692 12.375 4.92921 12.375 4.37692C12.375 3.82464 11.9273 3.37693 11.375 3.37693C10.8227 3.37693 10.375 3.82464 10.375 4.37692C10.375 4.92921 10.8227 5.37692 11.375 5.37692Z" fill="#192028"/>
<path d="M15.8274 5.1857C15.4936 4.33589 14.8816 3.10973 13.8613 2.09424C12.8446 1.08224 11.6314 0.487745 10.7927 0.167184C9.87199 -0.184721 8.82572 0.0370907 8.12728 0.732244L5.67298 3.17505C4.94545 3.89914 4.73576 5.01332 5.15117 5.94754C5.27998 6.23728 5.42007 6.52069 5.56976 6.7945L0.183062 12.1812C0.0658435 12.2984 0 12.4574 0 12.6231V15.3731C0 15.7183 0.279811 15.9981 0.624998 15.9981H3.37499C3.72017 15.9981 3.99998 15.7183 3.99998 15.3731V14.2481L5.12498 14.2481C5.47017 14.2481 5.74998 13.9683 5.74998 13.6231V12.4981H6.87497C7.22016 12.4981 7.49997 12.2183 7.49997 11.8731C7.49997 11.528 7.22016 11.2481 6.87497 11.2481H5.12498C4.77979 11.2481 4.49998 11.528 4.49998 11.8731V12.9981L3.37499 12.9981C3.0298 12.9981 2.74999 13.2779 2.74999 13.6231V14.7481H1.25V12.882L6.79232 7.33972C6.99594 7.13609 7.0341 6.81975 6.88475 6.57357C6.66816 6.21657 6.46919 5.83507 6.29341 5.43966C6.08719 4.97588 6.19226 4.42186 6.55485 4.06095L9.00912 1.61818C9.35953 1.26946 9.88446 1.15824 10.3466 1.3348C11.0722 1.61218 12.1181 2.12274 12.9795 2.98017C13.8463 3.84279 14.3739 4.90413 14.6639 5.64257C14.8449 6.10344 14.7349 6.62703 14.3838 6.97653L11.8998 9.44884C11.5381 9.8088 10.9982 9.91405 10.5243 9.71696C10.1335 9.5544 9.75496 9.36127 9.39934 9.14299C9.10518 8.96243 8.72031 9.05456 8.53975 9.34874C8.35919 9.64293 8.45128 10.0278 8.74547 10.2084C9.15646 10.4606 9.59346 10.6836 10.0443 10.8711C10.9862 11.2629 12.0607 11.0523 12.7816 10.3348L15.2655 7.86253C15.9701 7.16131 16.1906 6.1106 15.8274 5.1857Z" fill="#192028"/>
</g>
<defs>
<clipPath id="clip0">
<rect width="16" height="16" fill="white"/>
</clipPath>
</defs>
</svg>
