<svg width="217" height="112" viewBox="0 0 217 112" fill="none" xmlns="http://www.w3.org/2000/svg">
<path d="M17.1377 108H16.6348V104.489H12.4648V108H11.9668V100.861H12.4648V104.03H16.6348V100.861H17.1377V108ZM21.1855 108.098C20.4141 108.098 19.8118 107.86 19.3789 107.385C18.9492 106.91 18.7344 106.244 18.7344 105.388C18.7344 104.541 18.9427 103.864 19.3594 103.356C19.776 102.845 20.3376 102.59 21.0439 102.59C21.6689 102.59 22.1621 102.808 22.5234 103.244C22.8848 103.68 23.0654 104.273 23.0654 105.021V105.412H19.2422C19.2487 106.141 19.418 106.698 19.75 107.082C20.0853 107.466 20.5638 107.658 21.1855 107.658C21.4883 107.658 21.7536 107.637 21.9814 107.595C22.2126 107.552 22.5039 107.461 22.8555 107.321V107.761C22.556 107.891 22.2793 107.979 22.0254 108.024C21.7715 108.073 21.4915 108.098 21.1855 108.098ZM21.0439 103.02C20.5329 103.02 20.1227 103.189 19.8135 103.527C19.5042 103.863 19.3236 104.348 19.2715 104.982H22.5527C22.5527 104.367 22.4193 103.887 22.1523 103.542C21.8854 103.194 21.516 103.02 21.0439 103.02ZM28.8613 109.802H28.3828V108H24.3203V109.802H23.8418V107.541H24.1934C24.6361 106.919 24.9779 106.198 25.2188 105.378C25.4596 104.558 25.5866 103.662 25.5996 102.692H28.1533V107.541H28.8613V109.802ZM27.6699 107.541V103.142H26.0195C25.9414 104.903 25.515 106.369 24.7402 107.541H27.6699ZM34.0615 103.972C34.0615 104.307 33.9785 104.571 33.8125 104.763C33.6465 104.951 33.3763 105.083 33.002 105.158V105.192C33.4284 105.241 33.736 105.365 33.9248 105.563C34.1169 105.759 34.2129 106.04 34.2129 106.408C34.2129 106.919 34.0436 107.313 33.7051 107.59C33.3698 107.863 32.8783 108 32.2305 108H29.9893V102.692H32.2402C32.8457 102.692 33.2998 102.801 33.6025 103.02C33.9085 103.238 34.0615 103.555 34.0615 103.972ZM33.7002 106.398C33.7002 105.747 33.2005 105.422 32.2012 105.422H30.4727V107.541H32.2695C33.2233 107.541 33.7002 107.16 33.7002 106.398ZM33.5488 104.011C33.5488 103.701 33.4382 103.482 33.2168 103.352C32.9954 103.218 32.6634 103.151 32.2207 103.151H30.4727V104.968H32.1621C32.6569 104.968 33.0117 104.891 33.2266 104.738C33.4414 104.585 33.5488 104.343 33.5488 104.011ZM36.1123 102.692V106.53L36.083 107.531L39.2324 102.692H39.877V108H39.4131V104.187L39.4326 103.161L36.2832 108H35.6533V102.692H36.1123ZM43.8516 102.692H44.3398V105.271L46.6201 102.692H47.2109L44.9111 105.271L47.3916 108H46.7715L44.3398 105.31V108H43.8516V105.31L41.4199 108H40.7998L43.2705 105.29L40.9805 102.692H41.5713L43.8516 105.271V102.692ZM48.7686 102.692V106.53L48.7393 107.531L51.8887 102.692H52.5332V108H52.0693V104.187L52.0889 103.161L48.9395 108H48.3096V102.692H48.7686ZM56.7861 107.482L57.0889 106.628L58.6172 102.692H59.2861V108H58.8271V103.278C58.7555 103.483 58.679 103.693 58.5977 103.908C58.5195 104.123 57.9889 105.487 57.0059 108H56.5762L55.1064 104.27C55.0446 104.12 54.986 103.962 54.9307 103.796C54.8786 103.63 54.82 103.451 54.7549 103.259V108H54.3154V102.692H54.9551L56.4883 106.599C56.6087 106.914 56.708 107.209 56.7861 107.482ZM65.4531 105.339C65.4531 106.205 65.2432 106.882 64.8232 107.37C64.4033 107.855 63.8239 108.098 63.085 108.098C62.6195 108.098 62.2093 107.985 61.8545 107.761C61.4997 107.536 61.2279 107.214 61.0391 106.794C60.8503 106.374 60.7559 105.889 60.7559 105.339C60.7559 104.473 60.9658 103.799 61.3857 103.317C61.8057 102.832 62.3818 102.59 63.1143 102.59C63.8434 102.59 64.4147 102.836 64.8281 103.327C65.2448 103.815 65.4531 104.486 65.4531 105.339ZM61.2637 105.339C61.2637 106.068 61.4232 106.638 61.7422 107.048C62.0645 107.455 62.5186 107.658 63.1045 107.658C63.6904 107.658 64.1429 107.455 64.4619 107.048C64.7842 106.638 64.9453 106.068 64.9453 105.339C64.9453 104.606 64.7826 104.038 64.457 103.635C64.1348 103.231 63.6807 103.029 63.0947 103.029C62.5088 103.029 62.0563 103.231 61.7373 103.635C61.4215 104.035 61.2637 104.603 61.2637 105.339ZM69.042 108.098C68.2835 108.098 67.6895 107.858 67.2598 107.38C66.8301 106.901 66.6152 106.234 66.6152 105.378C66.6152 104.499 66.8382 103.815 67.2842 103.327C67.7301 102.836 68.3405 102.59 69.1152 102.59C69.5742 102.59 70.0137 102.67 70.4336 102.829L70.3018 103.259C69.8428 103.106 69.444 103.029 69.1055 103.029C68.4544 103.029 67.9613 103.231 67.626 103.635C67.2907 104.035 67.123 104.613 67.123 105.368C67.123 106.084 67.2907 106.646 67.626 107.053C67.9613 107.456 68.43 107.658 69.0322 107.658C69.514 107.658 69.9616 107.572 70.375 107.399V107.849C70.0365 108.015 69.5921 108.098 69.042 108.098ZM75.0479 103.112H73.2803V108H72.8018V103.112H70.9902V102.692H75.0479V103.112ZM76.625 104.929H78.4951C79.7419 104.929 80.3652 105.419 80.3652 106.398C80.3652 106.903 80.1911 107.297 79.8428 107.58C79.4945 107.86 78.9948 108 78.3438 108H76.1416V102.692H76.625V104.929ZM76.625 105.388V107.541H78.4219C78.8841 107.541 79.2373 107.443 79.4814 107.248C79.7288 107.053 79.8525 106.766 79.8525 106.389C79.8525 106.037 79.7435 105.783 79.5254 105.627C79.3073 105.467 78.9297 105.388 78.3926 105.388H76.625ZM82.3867 106.838L82.4453 106.94C82.2012 107.803 81.918 108.586 81.5957 109.289H81.2783C81.529 108.394 81.708 107.577 81.8154 106.838H82.3867ZM89.4619 102.692H90.0625L87.6846 105.261L90.2334 108H89.584L87.0742 105.31V108H86.5811V102.692H87.0742V105.271L89.4619 102.692ZM95.5605 105.339C95.5605 106.205 95.3506 106.882 94.9307 107.37C94.5107 107.855 93.9313 108.098 93.1924 108.098C92.7269 108.098 92.3167 107.985 91.9619 107.761C91.6071 107.536 91.3353 107.214 91.1465 106.794C90.9577 106.374 90.8633 105.889 90.8633 105.339C90.8633 104.473 91.0732 103.799 91.4932 103.317C91.9131 102.832 92.4893 102.59 93.2217 102.59C93.9508 102.59 94.5221 102.836 94.9355 103.327C95.3522 103.815 95.5605 104.486 95.5605 105.339ZM91.3711 105.339C91.3711 106.068 91.5306 106.638 91.8496 107.048C92.1719 107.455 92.626 107.658 93.2119 107.658C93.7979 107.658 94.2503 107.455 94.5693 107.048C94.8916 106.638 95.0527 106.068 95.0527 105.339C95.0527 104.606 94.89 104.038 94.5645 103.635C94.2422 103.231 93.7881 103.029 93.2021 103.029C92.6162 103.029 92.1637 103.231 91.8447 103.635C91.529 104.035 91.3711 104.603 91.3711 105.339ZM100.399 103.112H98.6318V108H98.1533V103.112H96.3418V102.692H100.399V103.112ZM105.883 105.339C105.883 106.205 105.673 106.882 105.253 107.37C104.833 107.855 104.254 108.098 103.515 108.098C103.049 108.098 102.639 107.985 102.284 107.761C101.929 107.536 101.658 107.214 101.469 106.794C101.28 106.374 101.186 105.889 101.186 105.339C101.186 104.473 101.396 103.799 101.815 103.317C102.235 102.832 102.812 102.59 103.544 102.59C104.273 102.59 104.844 102.836 105.258 103.327C105.674 103.815 105.883 104.486 105.883 105.339ZM101.693 105.339C101.693 106.068 101.853 106.638 102.172 107.048C102.494 107.455 102.948 107.658 103.534 107.658C104.12 107.658 104.573 107.455 104.892 107.048C105.214 106.638 105.375 106.068 105.375 105.339C105.375 104.606 105.212 104.038 104.887 103.635C104.564 103.231 104.11 103.029 103.524 103.029C102.938 103.029 102.486 103.231 102.167 103.635C101.851 104.035 101.693 104.603 101.693 105.339ZM109.623 108.098C108.806 108.098 108.21 107.792 107.836 107.18H107.802L107.816 107.59C107.829 107.831 107.836 108.094 107.836 108.381V110.402H107.353V102.692H107.763L107.855 103.449H107.885C108.249 102.876 108.832 102.59 109.633 102.59C110.349 102.59 110.894 102.826 111.269 103.298C111.646 103.767 111.835 104.45 111.835 105.349C111.835 106.221 111.636 106.898 111.239 107.38C110.845 107.858 110.307 108.098 109.623 108.098ZM109.613 107.668C110.157 107.668 110.577 107.466 110.873 107.062C111.173 106.659 111.322 106.094 111.322 105.368C111.322 103.809 110.759 103.029 109.633 103.029C109.014 103.029 108.56 103.2 108.271 103.542C107.981 103.881 107.836 104.434 107.836 105.202V105.358C107.836 106.188 107.974 106.781 108.251 107.136C108.531 107.491 108.985 107.668 109.613 107.668ZM117.699 105.339C117.699 106.205 117.489 106.882 117.069 107.37C116.649 107.855 116.07 108.098 115.331 108.098C114.866 108.098 114.455 107.985 114.101 107.761C113.746 107.536 113.474 107.214 113.285 106.794C113.096 106.374 113.002 105.889 113.002 105.339C113.002 104.473 113.212 103.799 113.632 103.317C114.052 102.832 114.628 102.59 115.36 102.59C116.09 102.59 116.661 102.836 117.074 103.327C117.491 103.815 117.699 104.486 117.699 105.339ZM113.51 105.339C113.51 106.068 113.669 106.638 113.988 107.048C114.311 107.455 114.765 107.658 115.351 107.658C115.937 107.658 116.389 107.455 116.708 107.048C117.03 106.638 117.191 106.068 117.191 105.339C117.191 104.606 117.029 104.038 116.703 103.635C116.381 103.231 115.927 103.029 115.341 103.029C114.755 103.029 114.302 103.231 113.983 103.635C113.668 104.035 113.51 104.603 113.51 105.339ZM119.628 102.692V106.53L119.599 107.531L122.748 102.692H123.393V108H122.929V104.187L122.948 103.161L119.799 108H119.169V102.692H119.628ZM121.283 101.94C120.798 101.94 120.429 101.833 120.175 101.618C119.921 101.4 119.773 101.05 119.73 100.568H120.16C120.209 100.926 120.32 101.18 120.492 101.33C120.665 101.477 120.932 101.55 121.293 101.55C121.651 101.55 121.916 101.473 122.089 101.32C122.265 101.167 122.372 100.917 122.411 100.568H122.841C122.772 101.483 122.253 101.94 121.283 101.94ZM129.076 105.271L127.226 102.692H127.782L129.364 104.929L130.932 102.692H131.464L129.643 105.271L131.596 108H131.034L129.364 105.632L127.685 108H127.152L129.076 105.271ZM137.143 105.339C137.143 106.205 136.933 106.882 136.513 107.37C136.093 107.855 135.513 108.098 134.774 108.098C134.309 108.098 133.899 107.985 133.544 107.761C133.189 107.536 132.917 107.214 132.729 106.794C132.54 106.374 132.445 105.889 132.445 105.339C132.445 104.473 132.655 103.799 133.075 103.317C133.495 102.832 134.071 102.59 134.804 102.59C135.533 102.59 136.104 102.836 136.518 103.327C136.934 103.815 137.143 104.486 137.143 105.339ZM132.953 105.339C132.953 106.068 133.113 106.638 133.432 107.048C133.754 107.455 134.208 107.658 134.794 107.658C135.38 107.658 135.832 107.455 136.151 107.048C136.474 106.638 136.635 106.068 136.635 105.339C136.635 104.606 136.472 104.038 136.146 103.635C135.824 103.231 135.37 103.029 134.784 103.029C134.198 103.029 133.746 103.231 133.427 103.635C133.111 104.035 132.953 104.603 132.953 105.339ZM139.003 102.692V104.47C139.003 104.919 139.112 105.243 139.33 105.441C139.548 105.64 139.883 105.739 140.336 105.739C140.655 105.739 140.959 105.682 141.249 105.568C141.539 105.454 141.84 105.272 142.152 105.021V102.692H142.636V108H142.152V105.48C141.827 105.731 141.506 105.91 141.19 106.018C140.878 106.125 140.539 106.179 140.175 106.179C139.631 106.179 139.219 106.037 138.939 105.754C138.663 105.471 138.524 105.062 138.524 104.528V102.692H139.003ZM146.557 108.098C145.785 108.098 145.183 107.86 144.75 107.385C144.32 106.91 144.105 106.244 144.105 105.388C144.105 104.541 144.314 103.864 144.73 103.356C145.147 102.845 145.709 102.59 146.415 102.59C147.04 102.59 147.533 102.808 147.895 103.244C148.256 103.68 148.437 104.273 148.437 105.021V105.412H144.613C144.62 106.141 144.789 106.698 145.121 107.082C145.456 107.466 145.935 107.658 146.557 107.658C146.859 107.658 147.125 107.637 147.353 107.595C147.584 107.552 147.875 107.461 148.227 107.321V107.761C147.927 107.891 147.65 107.979 147.396 108.024C147.143 108.073 146.863 108.098 146.557 108.098ZM146.415 103.02C145.904 103.02 145.494 103.189 145.185 103.527C144.875 103.863 144.695 104.348 144.643 104.982H147.924C147.924 104.367 147.79 103.887 147.523 103.542C147.257 103.194 146.887 103.02 146.415 103.02ZM153.271 103.112H151.503V108H151.024V103.112H149.213V102.692H153.271V103.112ZM156.483 108.098C155.725 108.098 155.131 107.858 154.701 107.38C154.271 106.901 154.057 106.234 154.057 105.378C154.057 104.499 154.28 103.815 154.726 103.327C155.172 102.836 155.782 102.59 156.557 102.59C157.016 102.59 157.455 102.67 157.875 102.829L157.743 103.259C157.284 103.106 156.885 103.029 156.547 103.029C155.896 103.029 155.403 103.231 155.067 103.635C154.732 104.035 154.564 104.613 154.564 105.368C154.564 106.084 154.732 106.646 155.067 107.053C155.403 107.456 155.871 107.658 156.474 107.658C156.955 107.658 157.403 107.572 157.816 107.399V107.849C157.478 108.015 157.034 108.098 156.483 108.098ZM159.042 108H158.432L160.033 105.71C159.545 105.619 159.192 105.45 158.974 105.202C158.759 104.955 158.651 104.637 158.651 104.25C158.651 103.768 158.812 103.389 159.135 103.112C159.46 102.832 159.896 102.692 160.443 102.692H162.631V108H162.152V105.769H160.531L159.042 108ZM159.159 104.23C159.159 104.595 159.276 104.867 159.511 105.046C159.748 105.222 160.105 105.31 160.58 105.31H162.152V103.151H160.434C160.03 103.151 159.716 103.244 159.491 103.43C159.27 103.612 159.159 103.879 159.159 104.23ZM171.083 103.972C171.083 104.307 171 104.571 170.834 104.763C170.668 104.951 170.398 105.083 170.023 105.158V105.192C170.45 105.241 170.757 105.365 170.946 105.563C171.138 105.759 171.234 106.04 171.234 106.408C171.234 106.919 171.065 107.313 170.727 107.59C170.391 107.863 169.9 108 169.252 108H167.011V102.692H169.262C169.867 102.692 170.321 102.801 170.624 103.02C170.93 103.238 171.083 103.555 171.083 103.972ZM170.722 106.398C170.722 105.747 170.222 105.422 169.223 105.422H167.494V107.541H169.291C170.245 107.541 170.722 107.16 170.722 106.398ZM170.57 104.011C170.57 103.701 170.46 103.482 170.238 103.352C170.017 103.218 169.685 103.151 169.242 103.151H167.494V104.968H169.184C169.678 104.968 170.033 104.891 170.248 104.738C170.463 104.585 170.57 104.343 170.57 104.011ZM176.347 108H175.868V103.142H173.988C173.891 104.427 173.77 105.409 173.627 106.086C173.487 106.76 173.305 107.256 173.08 107.575C172.859 107.891 172.571 108.049 172.216 108.049C172.089 108.049 171.978 108.036 171.884 108.01V107.57C171.946 107.59 172.034 107.6 172.147 107.6C172.515 107.6 172.812 107.212 173.036 106.438C173.264 105.66 173.437 104.411 173.554 102.692H176.347V108ZM181.347 108L181.225 107.16H181.186C180.919 107.502 180.644 107.744 180.36 107.888C180.08 108.028 179.748 108.098 179.364 108.098C178.843 108.098 178.438 107.964 178.148 107.697C177.859 107.43 177.714 107.061 177.714 106.589C177.714 106.071 177.929 105.669 178.358 105.383C178.791 105.096 179.416 104.945 180.233 104.929L181.244 104.899V104.548C181.244 104.043 181.142 103.662 180.937 103.405C180.731 103.148 180.401 103.02 179.945 103.02C179.454 103.02 178.944 103.156 178.417 103.43L178.236 103.01C178.819 102.736 179.395 102.6 179.965 102.6C180.548 102.6 180.982 102.751 181.269 103.054C181.558 103.356 181.703 103.828 181.703 104.47V108H181.347ZM179.394 107.658C179.96 107.658 180.406 107.497 180.731 107.175C181.06 106.849 181.225 106.398 181.225 105.822V105.3L180.297 105.339C179.551 105.375 179.019 105.492 178.7 105.69C178.384 105.886 178.227 106.192 178.227 106.608C178.227 106.94 178.327 107.199 178.529 107.385C178.734 107.567 179.022 107.658 179.394 107.658ZM187.758 109.802H187.279V108H183.217V109.802H182.738V107.541H183.09C183.533 106.919 183.874 106.198 184.115 105.378C184.356 104.558 184.483 103.662 184.496 102.692H187.05V107.541H187.758V109.802ZM186.566 107.541V103.142H184.916C184.838 104.903 184.411 106.369 183.637 107.541H186.566ZM191.029 108.098C190.258 108.098 189.656 107.86 189.223 107.385C188.793 106.91 188.578 106.244 188.578 105.388C188.578 104.541 188.786 103.864 189.203 103.356C189.62 102.845 190.181 102.59 190.888 102.59C191.513 102.59 192.006 102.808 192.367 103.244C192.729 103.68 192.909 104.273 192.909 105.021V105.412H189.086C189.092 106.141 189.262 106.698 189.594 107.082C189.929 107.466 190.408 107.658 191.029 107.658C191.332 107.658 191.597 107.637 191.825 107.595C192.056 107.552 192.348 107.461 192.699 107.321V107.761C192.4 107.891 192.123 107.979 191.869 108.024C191.615 108.073 191.335 108.098 191.029 108.098ZM190.888 103.02C190.377 103.02 189.966 103.189 189.657 103.527C189.348 103.863 189.167 104.348 189.115 104.982H192.396C192.396 104.367 192.263 103.887 191.996 103.542C191.729 103.194 191.36 103.02 190.888 103.02ZM197.743 103.112H195.976V108H195.497V103.112H193.686V102.692H197.743V103.112ZM199.32 104.929H201.19C202.437 104.929 203.061 105.419 203.061 106.398C203.061 106.903 202.886 107.297 202.538 107.58C202.19 107.86 201.69 108 201.039 108H198.837V102.692H199.32V104.929ZM199.32 105.388V107.541H201.117C201.579 107.541 201.933 107.443 202.177 107.248C202.424 107.053 202.548 106.766 202.548 106.389C202.548 106.037 202.439 105.783 202.221 105.627C202.003 105.467 201.625 105.388 201.088 105.388H199.32ZM204.989 106.159H204.691L204.55 100.861H205.131L204.989 106.159ZM204.442 107.619C204.442 107.3 204.573 107.141 204.833 107.141C205.1 107.141 205.233 107.3 205.233 107.619C205.233 107.938 205.1 108.098 204.833 108.098C204.573 108.098 204.442 107.938 204.442 107.619Z" fill="white"/>
<path d="M127.367 9.08847H120.28H99.0152H91.9277V16.6254V54.3123H99.0152V16.6254H120.28V54.3123H127.367V16.6254V9.08847Z" fill="white"/>
<path d="M113.19 24.1648H106.103V54.3148H113.19V24.1648Z" fill="white"/>
<path d="M76.7051 80.1628L76.0794 79.202H76.0421H75.3884V80.1628H74.6367V76.7121H76.0397C76.3269 76.7121 76.5767 76.7642 76.7891 76.866C77.0015 76.9678 77.1626 77.1118 77.277 77.3004C77.3914 77.4866 77.4474 77.71 77.4474 77.9657C77.4474 78.2214 77.3891 78.4424 77.2723 78.6286C77.1556 78.8148 76.9922 78.9563 76.7774 79.0556L77.5058 80.1652H76.7051V80.1628ZM76.5136 77.5189C76.3969 77.4146 76.2242 77.3625 76 77.3625H75.3884V78.564H76C76.2265 78.564 76.3969 78.5119 76.5136 78.4051C76.6304 78.3009 76.6887 78.1519 76.6887 77.9608C76.691 77.7696 76.6304 77.6207 76.5136 77.5189Z" fill="white"/>
<path d="M81.2502 79.5198V80.1603H78.7383V76.7096H81.1895V77.3501H79.4853V78.0998H80.991V78.7204H79.4853V79.5198H81.2502Z" fill="white"/>
<path d="M82.8657 80.1106C82.6252 80.0361 82.4338 79.9393 82.2891 79.8226L82.5435 79.2219C82.6836 79.3311 82.847 79.418 83.0384 79.4825C83.2299 79.5471 83.4213 79.5818 83.6127 79.5818C83.8251 79.5818 83.9839 79.5471 84.0843 79.4801C84.187 79.413 84.2383 79.3237 84.2383 79.2119C84.2383 79.13 84.208 79.0605 84.1473 79.0084C84.0866 78.9538 84.0096 78.9116 83.9162 78.8768C83.8228 78.8445 83.6944 78.8073 83.5333 78.7676C83.2859 78.7055 83.0851 78.6435 82.9264 78.5814C82.77 78.5193 82.6346 78.42 82.5202 78.281C82.4081 78.142 82.3521 77.9583 82.3521 77.7299C82.3521 77.5288 82.4035 77.3476 82.5038 77.1862C82.6066 77.0224 82.7606 76.8958 82.9637 76.799C83.1692 76.7046 83.4213 76.655 83.7178 76.655C83.9255 76.655 84.1263 76.6823 84.3247 76.7344C84.5231 76.7865 84.6959 76.8635 84.843 76.9603L84.6119 77.5661C84.313 77.3848 84.0119 77.2955 83.7131 77.2955C83.503 77.2955 83.3466 77.3302 83.2462 77.4047C83.1458 77.4767 83.0945 77.571 83.0945 77.6902C83.0945 77.8093 83.1528 77.8962 83.2695 77.9533C83.3863 78.0104 83.5613 78.0675 83.7995 78.1246C84.0469 78.1867 84.2477 78.2487 84.4064 78.3108C84.5652 78.3729 84.6982 78.4722 84.8126 78.6062C84.9247 78.7403 84.9807 78.924 84.9807 79.1524C84.9807 79.3485 84.9293 79.5297 84.8243 79.6911C84.7216 79.8549 84.5652 79.9815 84.3574 80.0783C84.1496 80.1727 83.8998 80.2223 83.6034 80.2223C83.3512 80.2198 83.1038 80.1826 82.8657 80.1106Z" fill="white"/>
<path d="M86.1947 76.7121H86.9441V80.1628H86.1924V76.7121H86.1947Z" fill="white"/>
<path d="M88.4077 76.7121H89.8808C90.2333 76.7121 90.5438 76.7841 90.8146 76.9256C91.0854 77.0695 91.2955 77.2706 91.4449 77.5288C91.5943 77.7895 91.669 78.0899 91.669 78.4349C91.669 78.78 91.5943 79.0829 91.4449 79.341C91.2955 79.6017 91.0854 79.8028 90.8146 79.9443C90.5438 80.0883 90.2333 80.1578 89.8808 80.1578H88.4077V76.7121ZM89.8457 79.5074C90.1702 79.5074 90.4294 79.4105 90.6208 79.2194C90.8146 79.0282 90.9103 78.7676 90.9103 78.4374C90.9103 78.1097 90.8146 77.8491 90.6208 77.6554C90.427 77.4643 90.1702 77.3674 89.8457 77.3674H89.1594V79.5049H89.8457V79.5074Z" fill="white"/>
<path d="M95.4435 79.5198V80.1603H92.9316V76.7096H95.3828V77.3501H93.6787V78.0998H95.1844V78.7204H93.6787V79.5198H95.4435Z" fill="white"/>
<path d="M99.7114 76.7121V80.1628H99.0951L97.4773 78.0675V80.1628H96.7373V76.7121H97.3583L98.9714 78.8073V76.7121H99.7114Z" fill="white"/>
<path d="M101.847 77.3625H100.811V76.7121H103.638V77.3625H102.599V80.1603H101.847V77.3625Z" fill="white"/>
<path d="M104.733 76.7121H105.485V80.1628H104.733V76.7121Z" fill="white"/>
<path d="M109.084 79.423H107.579L107.291 80.1628H106.523L107.968 76.7121H108.711L110.161 80.1628H109.374L109.084 79.423ZM108.849 78.8172L108.335 77.4965L107.821 78.8172H108.849Z" fill="white"/>
<path d="M111.192 76.7121H111.944V79.5099H113.571V80.1603H111.195V76.7121H111.192Z" fill="white"/>
<path d="M117.348 79.9915C117.082 79.8375 116.872 79.6265 116.718 79.3559C116.563 79.0853 116.489 78.7775 116.489 78.4374C116.489 78.0948 116.566 77.7895 116.718 77.5189C116.869 77.2483 117.079 77.0348 117.348 76.8834C117.614 76.7294 117.915 76.655 118.249 76.655C118.531 76.655 118.784 76.7071 119.012 76.8139C119.239 76.9181 119.43 77.0695 119.584 77.2681L119.103 77.7423C118.884 77.4742 118.613 77.3377 118.289 77.3377C118.088 77.3377 117.908 77.3848 117.752 77.4792C117.595 77.5735 117.472 77.7026 117.383 77.8714C117.294 78.0402 117.25 78.2289 117.25 78.4424C117.25 78.6559 117.294 78.847 117.383 79.0134C117.472 79.1797 117.593 79.3113 117.752 79.4056C117.91 79.4999 118.088 79.5471 118.289 79.5471C118.613 79.5471 118.884 79.4106 119.103 79.1375L119.584 79.6116C119.43 79.8127 119.239 79.9642 119.01 80.0709C118.781 80.1752 118.527 80.2298 118.244 80.2298C117.915 80.2199 117.616 80.1454 117.348 79.9915Z" fill="white"/>
<path d="M121.375 79.989C121.105 79.8351 120.895 79.6216 120.74 79.351C120.586 79.0804 120.512 78.775 120.512 78.4374C120.512 78.0998 120.589 77.7944 120.74 77.5238C120.892 77.2533 121.105 77.0398 121.375 76.8858C121.646 76.7319 121.95 76.655 122.286 76.655C122.622 76.655 122.926 76.7319 123.194 76.8858C123.462 77.0398 123.675 77.2533 123.829 77.5238C123.983 77.7944 124.06 78.0998 124.06 78.4374C124.06 78.775 123.983 79.0804 123.829 79.351C123.675 79.6216 123.462 79.8351 123.194 79.989C122.926 80.1429 122.622 80.2199 122.286 80.2199C121.95 80.2199 121.646 80.1429 121.375 79.989ZM122.804 79.4006C122.958 79.3063 123.08 79.1772 123.168 79.0084C123.257 78.8396 123.301 78.6509 123.301 78.4374C123.301 78.2239 123.257 78.0328 123.168 77.8664C123.08 77.7001 122.958 77.5685 122.804 77.4742C122.65 77.3799 122.477 77.3327 122.286 77.3327C122.094 77.3327 121.922 77.3799 121.768 77.4742C121.614 77.5685 121.492 77.6976 121.403 77.8664C121.315 78.0352 121.27 78.2239 121.27 78.4374C121.27 78.6509 121.315 78.8421 121.403 79.0084C121.492 79.1747 121.614 79.3063 121.768 79.4006C121.922 79.495 122.094 79.5421 122.286 79.5421C122.477 79.5397 122.65 79.495 122.804 79.4006Z" fill="white"/>
<path d="M128.273 80.1628L128.268 78.0923L127.313 79.7978H126.975L126.025 78.137V80.1628H125.32V76.7121H125.941L127.155 78.8545L128.35 76.7121H128.966L128.976 80.1628H128.273Z" fill="white"/>
<path d="M132.595 76.866C132.805 76.9678 132.968 77.1118 133.083 77.3004C133.197 77.4866 133.253 77.71 133.253 77.9657C133.253 78.219 133.195 78.4399 133.083 78.6286C132.968 78.8173 132.805 78.9612 132.595 79.063C132.382 79.1623 132.133 79.2144 131.845 79.2144H131.192V80.1653H130.442V76.7146H131.845C132.133 76.7121 132.382 76.7642 132.595 76.866ZM132.317 78.4051C132.434 78.3009 132.494 78.1544 132.494 77.9633C132.494 77.7696 132.436 77.6207 132.317 77.5164C132.2 77.4121 132.027 77.36 131.803 77.36H131.192V78.5566H131.803C132.03 78.5591 132.2 78.5094 132.317 78.4051Z" fill="white"/>
<path d="M134.483 76.7121H135.232V79.5099H136.859V80.1603H134.483V76.7121Z" fill="white"/>
<path d="M140.487 79.5198V80.1603H137.975V76.7096H140.426V77.3501H138.722V78.0998H140.228V78.7204H138.722V79.5198H140.487Z" fill="white"/>
<path d="M143.791 80.1628L143.006 78.9662L142.238 80.1628H141.377L142.577 78.4076L141.438 76.7121H142.29L143.037 77.8317L143.77 76.7121H144.58L143.45 78.3778L144.659 80.1628H143.791Z" fill="white"/>
<path d="M139.589 72.0971C138.786 71.6304 138.156 70.9849 137.698 70.1607C137.24 69.3365 137.012 68.418 137.012 67.4026C137.012 66.3873 137.24 65.4688 137.698 64.6446C138.156 63.8204 138.786 63.1749 139.589 62.7082C140.392 62.2415 141.293 62.0081 142.295 62.0081C143.287 62.0081 144.183 62.2415 144.986 62.7082C145.789 63.1749 146.417 63.8179 146.87 64.6371C147.323 65.4564 147.549 66.3774 147.549 67.4026C147.549 68.4279 147.323 69.3489 146.87 70.1682C146.417 70.9874 145.789 71.6304 144.986 72.0971C144.183 72.5638 143.287 72.7971 142.295 72.7971C141.293 72.7971 140.39 72.5638 139.589 72.0971ZM144.256 70.9303C144.837 70.5778 145.294 70.0937 145.631 69.4755C145.967 68.8574 146.132 68.1673 146.132 67.4026C146.132 66.6405 145.964 65.9479 145.631 65.3322C145.294 64.7141 144.837 64.23 144.256 63.8775C143.674 63.525 143.021 63.3512 142.292 63.3512C141.564 63.3512 140.906 63.5274 140.315 63.8775C139.724 64.23 139.262 64.7141 138.926 65.3322C138.59 65.9504 138.424 66.6405 138.424 67.4026C138.424 68.1673 138.592 68.8574 138.926 69.4755C139.262 70.0937 139.724 70.5778 140.315 70.9303C140.906 71.2828 141.564 71.4566 142.292 71.4566C143.021 71.4566 143.677 71.2828 144.256 70.9303Z" fill="white"/>
<path d="M79.4247 67.3426H80.7857V71.4561C80.2955 71.8881 79.7236 72.2207 79.0722 72.4516C78.4209 72.6825 77.7393 72.7991 77.0319 72.7991C76.0304 72.7991 75.1293 72.5658 74.3263 72.0991C73.5232 71.6324 72.8929 70.9894 72.4354 70.1702C71.9778 69.3509 71.749 68.4299 71.749 67.4046C71.749 66.3794 71.9778 65.4559 72.4354 64.6317C72.8929 63.8075 73.5256 63.1645 74.3333 62.7028C75.141 62.241 76.0491 62.0102 77.0599 62.0102C77.8537 62.0102 78.5727 62.1492 79.2193 62.4247C79.866 62.7003 80.4169 63.105 80.8698 63.6387L79.992 64.5721C79.1983 63.7578 78.2388 63.3507 77.116 63.3507C76.3596 63.3507 75.6826 63.5245 75.0826 63.8696C74.4827 64.2171 74.0135 64.6987 73.6726 65.3169C73.3318 65.935 73.1637 66.6301 73.1637 67.4046C73.1637 68.1693 73.3341 68.8594 73.6726 69.4775C74.0135 70.0957 74.4827 70.5798 75.0826 70.9323C75.6826 71.2848 76.3549 71.4586 77.102 71.4586C77.9891 71.4586 78.7641 71.2327 79.4247 70.7809V67.3426Z" fill="white"/>
<path d="M91.9352 70.0415H86.664L85.5738 72.678H84.1147L88.6063 62.1323H90.0093L94.5148 72.678H93.0277L91.9352 70.0415ZM91.438 68.835L89.2996 63.6665L87.1612 68.835H91.438Z" fill="white"/>
<path d="M98.1123 62.1323H99.5293V71.3672H104.899V72.678H98.1123V62.1323Z" fill="white"/>
<path d="M108.652 62.1323H110.069V72.678H108.652V62.1323Z" fill="white"/>
<path d="M115.17 62.1323H116.587V71.3672H121.956V72.678H115.17V62.1323Z" fill="white"/>
<path d="M132.907 71.3672V72.678H125.71V62.1323H132.709V63.443H127.127V66.6827H132.099V67.9637H127.127V71.3697H132.907V71.3672Z" fill="white"/>
<path d="M82.9385 65.9057C82.5347 66.0174 82.3176 66.571 82.4576 67.1445C82.5954 67.7179 83.0366 68.0953 83.4428 67.9836C83.8466 67.8718 84.0637 67.3182 83.9237 66.7423C83.7836 66.1713 83.3424 65.7965 82.9385 65.9057ZM83.4918 66.4916C83.3727 66.3302 83.214 66.2483 83.0669 66.288C82.9198 66.3277 82.8195 66.4816 82.7891 66.6852L82.6911 66.6231C82.7401 66.3972 82.8638 66.2235 83.0412 66.1763C83.2187 66.1291 83.4077 66.2135 83.5525 66.3873L83.4918 66.4916Z" fill="white"/>
<path d="M84.1661 66.6777C83.9933 65.9603 83.4144 65.4986 82.8751 65.645C82.8354 65.655 82.7981 65.6699 82.763 65.6872L76.6467 67.9041L76.6491 67.9091C76.6281 67.9116 76.6071 67.9165 76.586 67.9215C76.3806 67.9786 76.2429 68.1846 76.2032 68.4453C76.0771 68.5098 76.0141 68.6985 76.0608 68.8946C76.1075 69.0907 76.2499 69.2248 76.3876 69.2149C76.5394 69.4234 76.7565 69.5351 76.9619 69.478C76.9829 69.473 77.0016 69.4656 77.0226 69.4557V69.4606L83.384 68.269C83.4237 68.2641 83.4634 68.2566 83.5031 68.2467C84.0423 68.0977 84.3388 67.3952 84.1661 66.6777ZM83.4704 68.1151C82.9988 68.2442 82.4876 67.8247 82.3312 67.1792C82.1748 66.5338 82.4316 65.9057 82.9031 65.7766C83.377 65.6475 83.8859 66.0671 84.0423 66.7125C84.2011 67.358 83.9443 67.986 83.4704 68.1151Z" fill="white"/>
</svg>
