<svg width="127" height="112" viewBox="0 0 127 112" fill="none" xmlns="http://www.w3.org/2000/svg">
<path d="M89.3098 11.5664H79.1621H48.7156H38.5679V21.1588V69.1241H48.7156V21.1588H79.1621V69.1241H89.3098V21.1588V11.5664Z" fill="#0094D8"/>
<path d="M69.0115 30.7539H58.8638V69.1267H69.0115V30.7539Z" fill="black"/>
<path d="M16.7715 102.024L15.8757 100.801H15.8223H14.8864V102.024H13.8101V97.6318H15.8189C16.2301 97.6318 16.5877 97.6982 16.8919 97.8277C17.196 97.9573 17.4267 98.1405 17.5905 98.3806C17.7542 98.6176 17.8345 98.902 17.8345 99.2274C17.8345 99.5528 17.7509 99.834 17.5838 100.071C17.4167 100.308 17.1827 100.488 16.8752 100.614L17.918 102.027H16.7715V102.024ZM16.4975 98.6587C16.3303 98.526 16.083 98.4596 15.7621 98.4596H14.8864V99.9889H15.7621C16.0863 99.9889 16.3303 99.9225 16.4975 99.7866C16.6646 99.6539 16.7481 99.4644 16.7481 99.2211C16.7515 98.9778 16.6646 98.7882 16.4975 98.6587Z" fill="#0094D8"/>
<path d="M23.2791 101.207V102.022H19.6826V97.6299H23.1922V98.445H20.7522V99.3992H22.9081V100.189H20.7522V101.207H23.2791Z" fill="#0094D8"/>
<path d="M25.5917 101.959C25.2474 101.864 24.9733 101.741 24.7661 101.592L25.1304 100.828C25.331 100.967 25.565 101.077 25.839 101.159C26.1131 101.241 26.3872 101.286 26.6613 101.286C26.9655 101.286 27.1927 101.241 27.3365 101.156C27.4835 101.071 27.5571 100.957 27.5571 100.815C27.5571 100.711 27.5136 100.622 27.4267 100.556C27.3398 100.486 27.2295 100.433 27.0958 100.388C26.9621 100.347 26.7783 100.3 26.5476 100.249C26.1933 100.17 25.9059 100.091 25.6786 100.012C25.4547 99.9334 25.2608 99.807 25.097 99.6301C24.9366 99.4531 24.8564 99.2193 24.8564 98.9286C24.8564 98.6727 24.9299 98.4421 25.0736 98.2367C25.2207 98.0282 25.4413 97.867 25.7321 97.7438C26.0262 97.6237 26.3872 97.5605 26.8117 97.5605C27.1092 97.5605 27.3966 97.5953 27.6807 97.6617C27.9649 97.728 28.2122 97.826 28.4228 97.9492L28.0919 98.7201C27.664 98.4895 27.2329 98.3757 26.805 98.3757C26.5042 98.3757 26.2803 98.4199 26.1365 98.5147C25.9928 98.6064 25.9193 98.7264 25.9193 98.8781C25.9193 99.0298 26.0028 99.1403 26.1699 99.213C26.3371 99.2857 26.5878 99.3583 26.9287 99.431C27.283 99.51 27.5704 99.589 27.7977 99.668C28.025 99.747 28.2155 99.8734 28.3793 100.044C28.5398 100.215 28.62 100.448 28.62 100.739C28.62 100.989 28.5464 101.219 28.396 101.425C28.249 101.633 28.025 101.794 27.7275 101.918C27.4301 102.038 27.0724 102.101 26.6479 102.101C26.2869 102.098 25.9326 102.05 25.5917 101.959Z" fill="#0094D8"/>
<path d="M30.3583 97.6328H31.4313V102.025H30.355V97.6328H30.3583Z" fill="#0094D8"/>
<path d="M33.5269 97.6328H35.636C36.1407 97.6328 36.5852 97.7244 36.9729 97.9045C37.3607 98.0878 37.6615 98.3437 37.8754 98.6723C38.0893 99.0041 38.1963 99.3864 38.1963 99.8255C38.1963 100.265 38.0893 100.65 37.8754 100.979C37.6615 101.311 37.3607 101.566 36.9729 101.747C36.5852 101.93 36.1407 102.018 35.636 102.018H33.5269V97.6328ZM35.5858 101.19C36.0504 101.19 36.4214 101.067 36.6955 100.824C36.9729 100.581 37.11 100.249 37.11 99.8287C37.11 99.4116 36.9729 99.0799 36.6955 98.8334C36.4181 98.5902 36.0504 98.4669 35.5858 98.4669H34.6031V101.187H35.5858V101.19Z" fill="#0094D8"/>
<path d="M43.6014 101.207V102.022H40.0049V97.6299H43.5145V98.445H41.0745V99.3992H43.2304V100.189H41.0745V101.207H43.6014Z" fill="#0094D8"/>
<path d="M49.7119 97.6328V102.025H48.8295L46.5132 99.3579V102.025H45.4536V97.6328H46.3427L48.6524 100.299V97.6328H49.7119Z" fill="#0094D8"/>
<path d="M52.7697 98.4606H51.2856V97.6328H55.3334V98.4606H53.846V102.021H52.7697V98.4606Z" fill="#0094D8"/>
<path d="M56.9014 97.6328H57.9776V102.025H56.9014V97.6328Z" fill="#0094D8"/>
<path d="M63.132 101.083H60.9761L60.565 102.025H59.4653L61.5343 97.6328H62.5972L64.6729 102.025H63.5465L63.132 101.083ZM62.7944 100.312L62.0591 98.6312L61.3237 100.312H62.7944Z" fill="#0094D8"/>
<path d="M66.1499 97.6328H67.2262V101.194H69.5559V102.021H66.1532V97.6328H66.1499Z" fill="#0094D8"/>
<path d="M74.9634 101.807C74.5824 101.611 74.2816 101.343 74.061 100.998C73.8404 100.654 73.7334 100.262 73.7334 99.8291C73.7334 99.3931 73.8437 99.0045 74.061 98.6601C74.2782 98.3157 74.579 98.044 74.9634 97.8512C75.3445 97.6553 75.7756 97.5605 76.2536 97.5605C76.6581 97.5605 77.019 97.6269 77.3466 97.7628C77.6708 97.8955 77.9449 98.0882 78.1655 98.341L77.477 98.9444C77.1628 98.6032 76.775 98.4294 76.3104 98.4294C76.023 98.4294 75.7656 98.4895 75.5417 98.6095C75.3177 98.7296 75.1406 98.8939 75.0136 99.1087C74.8865 99.3236 74.823 99.5637 74.823 99.8354C74.823 100.107 74.8865 100.35 75.0136 100.562C75.1406 100.774 75.3144 100.941 75.5417 101.061C75.769 101.181 76.023 101.241 76.3104 101.241C76.775 101.241 77.1628 101.068 77.477 100.72L78.1655 101.324C77.9449 101.58 77.6708 101.772 77.3433 101.908C77.0157 102.041 76.6514 102.11 76.2469 102.11C75.7756 102.098 75.3478 102.003 74.9634 101.807Z" fill="#0094D8"/>
<path d="M80.7299 101.804C80.3422 101.608 80.0413 101.336 79.8207 100.992C79.6001 100.647 79.4932 100.259 79.4932 99.8291C79.4932 99.3994 79.6035 99.0108 79.8207 98.6664C80.038 98.322 80.3422 98.0503 80.7299 97.8544C81.1176 97.6585 81.5521 97.5605 82.0334 97.5605C82.5147 97.5605 82.9493 97.6585 83.3336 97.8544C83.718 98.0503 84.0222 98.322 84.2428 98.6664C84.4634 99.0108 84.5737 99.3994 84.5737 99.8291C84.5737 100.259 84.4634 100.647 84.2428 100.992C84.0222 101.336 83.718 101.608 83.3336 101.804C82.9493 102 82.5147 102.098 82.0334 102.098C81.5521 102.098 81.1176 102 80.7299 101.804ZM82.7755 101.055C82.9961 100.935 83.1699 100.771 83.2969 100.556C83.4239 100.341 83.4874 100.101 83.4874 99.8291C83.4874 99.5574 83.4239 99.3141 83.2969 99.1024C83.1699 98.8907 82.9961 98.7233 82.7755 98.6032C82.5549 98.4831 82.3075 98.4231 82.0334 98.4231C81.7593 98.4231 81.512 98.4831 81.2914 98.6032C81.0708 98.7233 80.897 98.8876 80.77 99.1024C80.643 99.3173 80.5795 99.5574 80.5795 99.8291C80.5795 100.101 80.643 100.344 80.77 100.556C80.897 100.768 81.0708 100.935 81.2914 101.055C81.512 101.175 81.7593 101.235 82.0334 101.235C82.3075 101.232 82.5549 101.175 82.7755 101.055Z" fill="#0094D8"/>
<path d="M90.6061 102.025L90.5994 99.3895L89.2324 101.56H88.7477L87.3873 99.4464V102.025H86.3779V97.6328H87.267L89.0051 100.36L90.7164 97.6328H91.5989L91.6122 102.025H90.6061Z" fill="#0094D8"/>
<path d="M96.7937 97.8286C97.0945 97.9581 97.3285 98.1414 97.4923 98.3815C97.656 98.6185 97.7363 98.9028 97.7363 99.2283C97.7363 99.5505 97.6527 99.8317 97.4923 100.072C97.3285 100.312 97.0945 100.495 96.7937 100.625C96.4895 100.751 96.1319 100.818 95.7207 100.818H94.7849V102.028H93.7119V97.6358H95.7207C96.1319 97.6327 96.4895 97.699 96.7937 97.8286ZM96.3959 99.7875C96.563 99.6548 96.6499 99.4684 96.6499 99.2251C96.6499 98.9787 96.5664 98.7891 96.3959 98.6564C96.2288 98.5237 95.9815 98.4573 95.6606 98.4573H94.7849V99.9802H95.6606C95.9848 99.9834 96.2288 99.9202 96.3959 99.7875Z" fill="#0094D8"/>
<path d="M99.4971 97.6328H100.57V101.194H102.9V102.021H99.4971V97.6328Z" fill="#0094D8"/>
<path d="M108.094 101.207V102.022H104.497V97.6299H108.007V98.445H105.567V99.3992H107.723V100.189H105.567V101.207H108.094Z" fill="#0094D8"/>
<path d="M112.824 102.025L111.701 100.502L110.602 102.025H109.368L111.086 99.7908L109.455 97.6328H110.675L111.745 99.0578L112.794 97.6328H113.954L112.336 99.7529L114.068 102.025H112.824Z" fill="#0094D8"/>
<path d="M106.809 91.7594C105.659 91.1654 104.756 90.3439 104.101 89.2949C103.446 88.246 103.119 87.0769 103.119 85.7847C103.119 84.4924 103.446 83.3234 104.101 82.2744C104.756 81.2254 105.659 80.4039 106.809 79.8099C107.959 79.2159 109.249 78.9189 110.683 78.9189C112.103 78.9189 113.387 79.2159 114.537 79.8099C115.686 80.4039 116.585 81.2223 117.234 82.2649C117.882 83.3076 118.207 84.4798 118.207 85.7847C118.207 87.0896 117.882 88.2618 117.234 89.3044C116.585 90.3471 115.686 91.1654 114.537 91.7594C113.387 92.3534 112.103 92.6504 110.683 92.6504C109.249 92.6504 107.955 92.3534 106.809 91.7594ZM113.49 90.2744C114.323 89.8257 114.978 89.2096 115.459 88.4229C115.94 87.6362 116.178 86.7578 116.178 85.7847C116.178 84.8147 115.937 83.9332 115.459 83.1496C114.978 82.3629 114.323 81.7467 113.49 81.2981C112.658 80.8494 111.722 80.6283 110.679 80.6283C109.636 80.6283 108.694 80.8526 107.848 81.2981C107.003 81.7467 106.341 82.3629 105.859 83.1496C105.378 83.9363 105.141 84.8147 105.141 85.7847C105.141 86.7578 105.382 87.6362 105.859 88.4229C106.341 89.2096 107.003 89.8257 107.848 90.2744C108.694 90.7231 109.636 90.9442 110.679 90.9442C111.722 90.9442 112.661 90.7231 113.49 90.2744Z" fill="black"/>
<path d="M20.6658 85.7086H22.6145V90.944C21.9126 91.4937 21.0936 91.9171 20.1611 92.211C19.2285 92.5048 18.2525 92.6533 17.2398 92.6533C15.8059 92.6533 14.5157 92.3563 13.3659 91.7623C12.2161 91.1683 11.3136 90.35 10.6585 89.3073C10.0033 88.2647 9.67578 87.0925 9.67578 85.7876C9.67578 84.4827 10.0033 83.3073 10.6585 82.2584C11.3136 81.2094 12.2194 80.3911 13.3759 79.8034C14.5324 79.2157 15.8326 78.9219 17.2799 78.9219C18.4163 78.9219 19.4458 79.0988 20.3717 79.4495C21.2975 79.8002 22.0864 80.3152 22.7348 80.9945L21.478 82.1825C20.3416 81.1462 18.9678 80.628 17.3601 80.628C16.2772 80.628 15.3078 80.8492 14.4488 81.2884C13.5898 81.7307 12.918 82.3437 12.43 83.1304C11.942 83.9171 11.7013 84.8018 11.7013 85.7876C11.7013 86.7607 11.9453 87.6391 12.43 88.4258C12.918 89.2125 13.5898 89.8287 14.4488 90.2773C15.3078 90.726 16.2705 90.9471 17.3401 90.9471C18.6102 90.9471 19.7199 90.6596 20.6658 90.0846V85.7086Z" fill="black"/>
<path d="M38.5786 89.1435H31.0313L29.4704 92.499H27.3813L33.8123 79.0771H35.8211L42.272 92.499H40.1429L38.5786 89.1435ZM37.8667 87.608L34.805 81.0298L31.7433 87.608H37.8667Z" fill="black"/>
<path d="M47.4229 79.0771H49.4517V90.8307H57.1394V92.499H47.4229V79.0771Z" fill="black"/>
<path d="M62.5132 79.0771H64.542V92.499H62.5132V79.0771Z" fill="black"/>
<path d="M71.8457 79.0771H73.8746V90.8307H81.5622V92.499H71.8457V79.0771Z" fill="black"/>
<path d="M97.2413 90.8307V92.499H86.9365V79.0771H96.9572V80.7454H88.9654V84.8686H96.0848V86.4989H88.9654V90.8339H97.2413V90.8307Z" fill="black"/>
<path d="M25.6958 83.8786C25.1176 84.0208 24.8067 84.7253 25.0073 85.4552C25.2045 86.185 25.8362 86.6653 26.4178 86.5231C26.996 86.3809 27.3069 85.6764 27.1063 84.9433C26.9058 84.2166 26.2741 83.7396 25.6958 83.8786ZM26.488 84.6242C26.3175 84.4189 26.0902 84.3146 25.8796 84.3651C25.6691 84.4157 25.5253 84.6116 25.4819 84.8707L25.3415 84.7917C25.4117 84.5042 25.5888 84.283 25.8429 84.223C26.0969 84.1629 26.3676 84.2704 26.5749 84.4915L26.488 84.6242Z" fill="#0094D8"/>
<path d="M27.4537 84.8616C27.2064 83.9485 26.3774 83.3608 25.6053 83.5472C25.5485 83.5598 25.495 83.5788 25.4449 83.6009L16.6876 86.4224L16.691 86.4287C16.6609 86.4319 16.6308 86.4382 16.6007 86.4445C16.3066 86.5172 16.1094 86.7794 16.0526 87.1112C15.8721 87.1933 15.7818 87.4334 15.8487 87.6831C15.9155 87.9327 16.1194 88.1033 16.3166 88.0906C16.5339 88.356 16.8447 88.4982 17.1389 88.4256C17.169 88.4192 17.1957 88.4098 17.2258 88.3971V88.4034L26.334 86.8868C26.3908 86.8805 26.4476 86.8711 26.5045 86.8584C27.2766 86.6688 27.7011 85.7747 27.4537 84.8616ZM26.4577 86.691C25.7825 86.8553 25.0505 86.3213 24.8265 85.4998C24.6026 84.6783 24.9703 83.8789 25.6455 83.7146C26.324 83.5504 27.0526 84.0843 27.2766 84.9058C27.5039 85.7273 27.1362 86.5267 26.4577 86.691Z" fill="black"/>
</svg>
