<svg width="11" height="14" viewBox="0 0 11 14" fill="none" xmlns="http://www.w3.org/2000/svg">
<path d="M5.9249 0.00291797C3.08184 -0.0928965 0.74707 2.18329 0.74707 5.00476C0.74707 8.20681 3.81989 10.5306 5.5422 13.8726C5.62964 14.0423 5.8739 14.0425 5.96164 13.8729C7.51972 10.8658 10.1827 8.84933 10.6762 5.95233C11.1872 2.95449 8.96414 0.105384 5.9249 0.00291797ZM5.75167 7.62626C4.30391 7.62626 3.13023 6.45252 3.13023 5.00476C3.13023 3.55699 4.30394 2.38326 5.75167 2.38326C7.19944 2.38326 8.37315 3.55699 8.37315 5.00476C8.37315 6.45252 7.19944 7.62626 5.75167 7.62626Z" fill="#005F99"/>
</svg>
