<svg width="16" height="16" viewBox="0 0 16 16" fill="none" xmlns="http://www.w3.org/2000/svg">
<path d="M15.104 2.95309L12.6836 0.532719C12.3403 0.189469 11.8836 0 11.3978 0H4.00034C3.79925 0 3.63672 0.162531 3.63672 0.363625C3.63672 0.564719 3.79925 0.72725 4.00034 0.72725H11.3978C11.6894 0.72725 11.9636 0.840719 12.1694 1.04688L14.5898 3.46725C14.796 3.67344 14.9094 3.94725 14.9094 4.23887V14.9091C14.9094 15.1098 14.7465 15.2727 14.5458 15.2727C14.3447 15.2727 14.1822 15.4352 14.1822 15.6363C14.1822 15.8374 14.3447 16 14.5458 16C15.1473 16 15.6367 15.5105 15.6367 14.9091V4.23891C15.6367 3.75309 15.4473 3.29638 15.104 2.95309Z" fill="white"/>
<path d="M9.45445 1.45459C9.25335 1.45459 9.09082 1.61712 9.09082 1.81821V3.27275C9.09082 3.47384 9.25335 3.63637 9.45445 3.63637C9.65554 3.63637 9.81807 3.47384 9.81807 3.27275V1.81825C9.8181 1.61715 9.65554 1.45459 9.45445 1.45459Z" fill="white"/>
<path d="M13.4542 8H2.54513C2.34403 8 2.1815 8.16253 2.1815 8.36362V14.1818C2.1815 14.3829 2.34403 14.5454 2.54513 14.5454C2.74622 14.5454 2.90875 14.3829 2.90875 14.1818V8.72728H13.0906V15.2727H1.45419C1.25347 15.2727 1.09056 15.1098 1.09056 14.9091V1.09091C1.09056 0.890188 1.25347 0.727281 1.45419 0.727281H2.18147V4.72728C2.18147 4.92837 2.344 5.09091 2.54509 5.09091H11.2724C11.4735 5.09091 11.636 4.92837 11.636 4.72728V1.81819C11.636 1.61709 11.4735 1.45456 11.2724 1.45456C11.0713 1.45456 10.9088 1.61709 10.9088 1.81819V4.36366H2.90875V0.363656C2.90875 0.162531 2.74619 0 2.54513 0H1.45419C0.85275 0 0.363281 0.489469 0.363281 1.09091V14.9091C0.363281 15.5106 0.85275 16 1.45419 16H13.4542C13.6553 16 13.8178 15.8375 13.8178 15.6364V8.36362C13.8178 8.16253 13.6553 8 13.4542 8Z" fill="white"/>
<path d="M11.2723 10.1821H4.72691C4.52581 10.1821 4.36328 10.3447 4.36328 10.5458C4.36328 10.7468 4.52581 10.9094 4.72691 10.9094H11.2724C11.4735 10.9094 11.636 10.7468 11.636 10.5458C11.636 10.3447 11.4734 10.1821 11.2723 10.1821Z" fill="white"/>
<path d="M11.2723 11.6362H4.72691C4.52581 11.6362 4.36328 11.7988 4.36328 11.9999C4.36328 12.2009 4.52581 12.3635 4.72691 12.3635H11.2724C11.4735 12.3635 11.636 12.2009 11.636 11.9999C11.636 11.7988 11.4734 11.6362 11.2723 11.6362Z" fill="white"/>
<path d="M11.2723 13.0908H4.72691C4.52581 13.0908 4.36328 13.2534 4.36328 13.4544C4.36328 13.6555 4.52581 13.8181 4.72691 13.8181H11.2724C11.4735 13.8181 11.636 13.6555 11.636 13.4544C11.636 13.2534 11.4734 13.0908 11.2723 13.0908Z" fill="white"/>
</svg>
